%TF.GenerationSoftware,KiCad,Pcbnew,9.0.6*%
%TF.CreationDate,2026-10-02T14:21:53-05:00*%
%TF.ProjectId,pi5-environment-hat,7069352d-656e-4766-9972-6f6e6d656e74,rev?*%
%TF.SameCoordinates,Original*%
%TF.FileFunction,Legend,Top*%
%TF.FilePolarity,Positive*%
%FSLAX46Y46*%
G04 Gerber Fmt 4.6, Leading zero omitted, Abs format (unit mm)*
G04 Created by KiCad (PCBNEW 9.0.6) date 2026-10-02 14:21:53*
%MOMM*%
%LPD*%
G01*
G04 APERTURE LIST*
%ADD10C,0.180000*%
%ADD11C,0.120000*%
G04 APERTURE END LIST*
D10*
X43380951Y-21653259D02*
X43571427Y-21653259D01*
X43571427Y-21653259D02*
X43666665Y-21700878D01*
X43666665Y-21700878D02*
X43761903Y-21796116D01*
X43761903Y-21796116D02*
X43809522Y-21986592D01*
X43809522Y-21986592D02*
X43809522Y-22319925D01*
X43809522Y-22319925D02*
X43761903Y-22510401D01*
X43761903Y-22510401D02*
X43666665Y-22605640D01*
X43666665Y-22605640D02*
X43571427Y-22653259D01*
X43571427Y-22653259D02*
X43380951Y-22653259D01*
X43380951Y-22653259D02*
X43285713Y-22605640D01*
X43285713Y-22605640D02*
X43190475Y-22510401D01*
X43190475Y-22510401D02*
X43142856Y-22319925D01*
X43142856Y-22319925D02*
X43142856Y-21986592D01*
X43142856Y-21986592D02*
X43190475Y-21796116D01*
X43190475Y-21796116D02*
X43285713Y-21700878D01*
X43285713Y-21700878D02*
X43380951Y-21653259D01*
X44809522Y-22653259D02*
X44476189Y-22177068D01*
X44238094Y-22653259D02*
X44238094Y-21653259D01*
X44238094Y-21653259D02*
X44619046Y-21653259D01*
X44619046Y-21653259D02*
X44714284Y-21700878D01*
X44714284Y-21700878D02*
X44761903Y-21748497D01*
X44761903Y-21748497D02*
X44809522Y-21843735D01*
X44809522Y-21843735D02*
X44809522Y-21986592D01*
X44809522Y-21986592D02*
X44761903Y-22081830D01*
X44761903Y-22081830D02*
X44714284Y-22129449D01*
X44714284Y-22129449D02*
X44619046Y-22177068D01*
X44619046Y-22177068D02*
X44238094Y-22177068D01*
X45809522Y-22558020D02*
X45761903Y-22605640D01*
X45761903Y-22605640D02*
X45619046Y-22653259D01*
X45619046Y-22653259D02*
X45523808Y-22653259D01*
X45523808Y-22653259D02*
X45380951Y-22605640D01*
X45380951Y-22605640D02*
X45285713Y-22510401D01*
X45285713Y-22510401D02*
X45238094Y-22415163D01*
X45238094Y-22415163D02*
X45190475Y-22224687D01*
X45190475Y-22224687D02*
X45190475Y-22081830D01*
X45190475Y-22081830D02*
X45238094Y-21891354D01*
X45238094Y-21891354D02*
X45285713Y-21796116D01*
X45285713Y-21796116D02*
X45380951Y-21700878D01*
X45380951Y-21700878D02*
X45523808Y-21653259D01*
X45523808Y-21653259D02*
X45619046Y-21653259D01*
X45619046Y-21653259D02*
X45761903Y-21700878D01*
X45761903Y-21700878D02*
X45809522Y-21748497D01*
X46190475Y-22367544D02*
X46666665Y-22367544D01*
X46095237Y-22653259D02*
X46428570Y-21653259D01*
X46428570Y-21653259D02*
X46761903Y-22653259D01*
X47857142Y-22653259D02*
X47857142Y-21653259D01*
X47857142Y-21653259D02*
X48238094Y-21653259D01*
X48238094Y-21653259D02*
X48333332Y-21700878D01*
X48333332Y-21700878D02*
X48380951Y-21748497D01*
X48380951Y-21748497D02*
X48428570Y-21843735D01*
X48428570Y-21843735D02*
X48428570Y-21986592D01*
X48428570Y-21986592D02*
X48380951Y-22081830D01*
X48380951Y-22081830D02*
X48333332Y-22129449D01*
X48333332Y-22129449D02*
X48238094Y-22177068D01*
X48238094Y-22177068D02*
X47857142Y-22177068D01*
X48857142Y-22653259D02*
X48857142Y-21653259D01*
X50571427Y-21653259D02*
X50095237Y-21653259D01*
X50095237Y-21653259D02*
X50047618Y-22129449D01*
X50047618Y-22129449D02*
X50095237Y-22081830D01*
X50095237Y-22081830D02*
X50190475Y-22034211D01*
X50190475Y-22034211D02*
X50428570Y-22034211D01*
X50428570Y-22034211D02*
X50523808Y-22081830D01*
X50523808Y-22081830D02*
X50571427Y-22129449D01*
X50571427Y-22129449D02*
X50619046Y-22224687D01*
X50619046Y-22224687D02*
X50619046Y-22462782D01*
X50619046Y-22462782D02*
X50571427Y-22558020D01*
X50571427Y-22558020D02*
X50523808Y-22605640D01*
X50523808Y-22605640D02*
X50428570Y-22653259D01*
X50428570Y-22653259D02*
X50190475Y-22653259D01*
X50190475Y-22653259D02*
X50095237Y-22605640D01*
X50095237Y-22605640D02*
X50047618Y-22558020D01*
X51809523Y-22129449D02*
X52142856Y-22129449D01*
X52285713Y-22653259D02*
X51809523Y-22653259D01*
X51809523Y-22653259D02*
X51809523Y-21653259D01*
X51809523Y-21653259D02*
X52285713Y-21653259D01*
X52714285Y-22653259D02*
X52714285Y-21653259D01*
X52714285Y-21653259D02*
X53285713Y-22653259D01*
X53285713Y-22653259D02*
X53285713Y-21653259D01*
X53619047Y-21653259D02*
X53952380Y-22653259D01*
X53952380Y-22653259D02*
X54285713Y-21653259D01*
X55333333Y-22605640D02*
X55476190Y-22653259D01*
X55476190Y-22653259D02*
X55714285Y-22653259D01*
X55714285Y-22653259D02*
X55809523Y-22605640D01*
X55809523Y-22605640D02*
X55857142Y-22558020D01*
X55857142Y-22558020D02*
X55904761Y-22462782D01*
X55904761Y-22462782D02*
X55904761Y-22367544D01*
X55904761Y-22367544D02*
X55857142Y-22272306D01*
X55857142Y-22272306D02*
X55809523Y-22224687D01*
X55809523Y-22224687D02*
X55714285Y-22177068D01*
X55714285Y-22177068D02*
X55523809Y-22129449D01*
X55523809Y-22129449D02*
X55428571Y-22081830D01*
X55428571Y-22081830D02*
X55380952Y-22034211D01*
X55380952Y-22034211D02*
X55333333Y-21938973D01*
X55333333Y-21938973D02*
X55333333Y-21843735D01*
X55333333Y-21843735D02*
X55380952Y-21748497D01*
X55380952Y-21748497D02*
X55428571Y-21700878D01*
X55428571Y-21700878D02*
X55523809Y-21653259D01*
X55523809Y-21653259D02*
X55761904Y-21653259D01*
X55761904Y-21653259D02*
X55904761Y-21700878D01*
X56190476Y-21653259D02*
X56761904Y-21653259D01*
X56476190Y-22653259D02*
X56476190Y-21653259D01*
X57047619Y-22367544D02*
X57523809Y-22367544D01*
X56952381Y-22653259D02*
X57285714Y-21653259D01*
X57285714Y-21653259D02*
X57619047Y-22653259D01*
X57809524Y-21653259D02*
X58380952Y-21653259D01*
X58095238Y-22653259D02*
X58095238Y-21653259D01*
X58714286Y-21653259D02*
X58714286Y-22462782D01*
X58714286Y-22462782D02*
X58761905Y-22558020D01*
X58761905Y-22558020D02*
X58809524Y-22605640D01*
X58809524Y-22605640D02*
X58904762Y-22653259D01*
X58904762Y-22653259D02*
X59095238Y-22653259D01*
X59095238Y-22653259D02*
X59190476Y-22605640D01*
X59190476Y-22605640D02*
X59238095Y-22558020D01*
X59238095Y-22558020D02*
X59285714Y-22462782D01*
X59285714Y-22462782D02*
X59285714Y-21653259D01*
X59714286Y-22605640D02*
X59857143Y-22653259D01*
X59857143Y-22653259D02*
X60095238Y-22653259D01*
X60095238Y-22653259D02*
X60190476Y-22605640D01*
X60190476Y-22605640D02*
X60238095Y-22558020D01*
X60238095Y-22558020D02*
X60285714Y-22462782D01*
X60285714Y-22462782D02*
X60285714Y-22367544D01*
X60285714Y-22367544D02*
X60238095Y-22272306D01*
X60238095Y-22272306D02*
X60190476Y-22224687D01*
X60190476Y-22224687D02*
X60095238Y-22177068D01*
X60095238Y-22177068D02*
X59904762Y-22129449D01*
X59904762Y-22129449D02*
X59809524Y-22081830D01*
X59809524Y-22081830D02*
X59761905Y-22034211D01*
X59761905Y-22034211D02*
X59714286Y-21938973D01*
X59714286Y-21938973D02*
X59714286Y-21843735D01*
X59714286Y-21843735D02*
X59761905Y-21748497D01*
X59761905Y-21748497D02*
X59809524Y-21700878D01*
X59809524Y-21700878D02*
X59904762Y-21653259D01*
X59904762Y-21653259D02*
X60142857Y-21653259D01*
X60142857Y-21653259D02*
X60285714Y-21700878D01*
X61476191Y-22653259D02*
X61476191Y-21653259D01*
X61476191Y-22129449D02*
X62047619Y-22129449D01*
X62047619Y-22653259D02*
X62047619Y-21653259D01*
X62476191Y-22367544D02*
X62952381Y-22367544D01*
X62380953Y-22653259D02*
X62714286Y-21653259D01*
X62714286Y-21653259D02*
X63047619Y-22653259D01*
X63238096Y-21653259D02*
X63809524Y-21653259D01*
X63523810Y-22653259D02*
X63523810Y-21653259D01*
X65476191Y-22653259D02*
X65142858Y-22177068D01*
X64904763Y-22653259D02*
X64904763Y-21653259D01*
X64904763Y-21653259D02*
X65285715Y-21653259D01*
X65285715Y-21653259D02*
X65380953Y-21700878D01*
X65380953Y-21700878D02*
X65428572Y-21748497D01*
X65428572Y-21748497D02*
X65476191Y-21843735D01*
X65476191Y-21843735D02*
X65476191Y-21986592D01*
X65476191Y-21986592D02*
X65428572Y-22081830D01*
X65428572Y-22081830D02*
X65380953Y-22129449D01*
X65380953Y-22129449D02*
X65285715Y-22177068D01*
X65285715Y-22177068D02*
X64904763Y-22177068D01*
X65904763Y-22129449D02*
X66238096Y-22129449D01*
X66380953Y-22653259D02*
X65904763Y-22653259D01*
X65904763Y-22653259D02*
X65904763Y-21653259D01*
X65904763Y-21653259D02*
X66380953Y-21653259D01*
X66666668Y-21653259D02*
X67000001Y-22653259D01*
X67000001Y-22653259D02*
X67333334Y-21653259D01*
X68380954Y-22367544D02*
X68857144Y-22367544D01*
X68285716Y-22653259D02*
X68619049Y-21653259D01*
X68619049Y-21653259D02*
X68952382Y-22653259D01*
D11*
%TO.C,U1*%
X59750000Y-26640000D02*
X62250000Y-26640000D01*
X59750000Y-29360000D02*
X62250000Y-29360000D01*
X59350000Y-26950000D02*
X59070000Y-26950000D01*
X59350000Y-26670000D01*
X59350000Y-26950000D01*
G36*
X59350000Y-26950000D02*
G01*
X59070000Y-26950000D01*
X59350000Y-26670000D01*
X59350000Y-26950000D01*
G37*
%TO.C,R8*%
X42620000Y-60080000D02*
X46460000Y-60080000D01*
X42620000Y-61920000D02*
X46460000Y-61920000D01*
%TO.C,D1*%
X70678500Y-38455000D02*
X70678500Y-38920000D01*
X70678500Y-41080000D02*
X70678500Y-41545000D01*
X70678500Y-38455170D02*
G75*
G02*
X76026315Y-38919173I2560000J-1544830D01*
G01*
X70983816Y-38920000D02*
G75*
G02*
X75492979Y-38919571I2254684J-1080000D01*
G01*
X75492979Y-41080429D02*
G75*
G02*
X70983816Y-41080000I-2254479J1080429D01*
G01*
X76026315Y-41080827D02*
G75*
G02*
X70678500Y-41544830I-2787815J1080827D01*
G01*
%TO.C,R6*%
X52620000Y-48080000D02*
X56460000Y-48080000D01*
X52620000Y-49920000D02*
X56460000Y-49920000D01*
%TO.C,C1*%
X70485000Y-28080000D02*
X72015000Y-28080000D01*
X72015000Y-29920000D02*
X70485000Y-29920000D01*
%TO.C,J2*%
X77620000Y-47380000D02*
X77620000Y-46000000D01*
X79000000Y-47380000D02*
X77620000Y-47380000D01*
X80270000Y-44620000D02*
X82920000Y-44620000D01*
X80270000Y-47380000D02*
X80270000Y-44620000D01*
X80270000Y-47380000D02*
X82920000Y-47380000D01*
X82920000Y-47380000D02*
X82920000Y-44620000D01*
%TO.C,Q1*%
X64470000Y-47850000D02*
X68070000Y-47850000D01*
X64431522Y-47838478D02*
G75*
G02*
X66270000Y-43399999I1838478J1838478D01*
G01*
X66270000Y-43400000D02*
G75*
G02*
X68108478Y-47838478I0J-2600000D01*
G01*
%TO.C,C3*%
X42485000Y-35080000D02*
X44015000Y-35080000D01*
X44015000Y-36920000D02*
X42485000Y-36920000D01*
%TO.C,R2*%
X45620000Y-30080000D02*
X49460000Y-30080000D01*
X45620000Y-31920000D02*
X49460000Y-31920000D01*
%TO.C,R9*%
X42620000Y-64080000D02*
X46460000Y-64080000D01*
X42620000Y-65920000D02*
X46460000Y-65920000D01*
%TO.C,R5*%
X50620000Y-45080000D02*
X54460000Y-45080000D01*
X50620000Y-46920000D02*
X54460000Y-46920000D01*
%TO.C,J1*%
X25620000Y-23120000D02*
X27000000Y-23120000D01*
X25620000Y-24500000D02*
X25620000Y-23120000D01*
X25620000Y-25770000D02*
X25620000Y-74140000D01*
X25620000Y-25770000D02*
X28270000Y-25770000D01*
X25620000Y-74140000D02*
X30920000Y-74140000D01*
X28270000Y-23120000D02*
X30920000Y-23120000D01*
X28270000Y-25770000D02*
X28270000Y-23120000D01*
X30920000Y-23120000D02*
X30920000Y-74140000D01*
%TO.C,R3*%
X50620000Y-33080000D02*
X54460000Y-33080000D01*
X50620000Y-34920000D02*
X54460000Y-34920000D01*
%TO.C,R4*%
X50620000Y-39080000D02*
X54460000Y-39080000D01*
X50620000Y-40920000D02*
X54460000Y-40920000D01*
%TO.C,U2*%
X61160000Y-63670000D02*
X61160000Y-73950000D01*
X61160000Y-73950000D02*
X66460000Y-73950000D01*
X62810000Y-63670000D02*
X61160000Y-63670000D01*
X66460000Y-63670000D02*
X64810000Y-63670000D01*
X66460000Y-73950000D02*
X66460000Y-63670000D01*
X64810000Y-63670000D02*
G75*
G02*
X62810000Y-63670000I-1000000J0D01*
G01*
%TO.C,C2*%
X78485000Y-59080000D02*
X80015000Y-59080000D01*
X80015000Y-60920000D02*
X78485000Y-60920000D01*
%TO.C,R1*%
X45620000Y-25080000D02*
X49460000Y-25080000D01*
X45620000Y-26920000D02*
X49460000Y-26920000D01*
%TO.C,R10*%
X42620000Y-68080000D02*
X46460000Y-68080000D01*
X42620000Y-69920000D02*
X46460000Y-69920000D01*
%TO.C,R7*%
X59080000Y-49380000D02*
X59080000Y-45540000D01*
X60920000Y-49380000D02*
X60920000Y-45540000D01*
%TD*%
M02*
