M48
; DRILL file {KiCad 9.0.6} date 2026-10-02T14:21:53-0500
; FORMAT={-:-/ absolute / metric / decimal}
; #@! TF.CreationDate,2026-10-02T14:21:53-05:00
; #@! TF.GenerationSoftware,Kicad,Pcbnew,9.0.6
; #@! TF.FileFunction,Plated,1,4,PTH
FMAT,2
METRIC
; #@! TA.AperFunction,Plated,PTH,ViaDrill
T1C0.400
; #@! TA.AperFunction,Plated,PTH,ComponentDrill
T2C0.700
; #@! TA.AperFunction,Plated,PTH,ComponentDrill
T3C0.750
; #@! TA.AperFunction,Plated,PTH,ComponentDrill
T4C0.800
; #@! TA.AperFunction,Plated,PTH,ComponentDrill
T5C0.900
; #@! TA.AperFunction,Plated,PTH,ComponentDrill
T6C1.000
; #@! TA.AperFunction,Plated,PTH,ComponentDrill
T7C2.000
%
G90
G05
T1
X56.5Y-27.75
X57.5Y-30.5
X61.0Y-31.0
X64.5Y-26.3
X64.5Y-27.75
X66.0Y-29.3
X73.0Y-30.5
T2
X42.0Y-61.0
X42.0Y-65.0
X42.0Y-69.0
X45.0Y-26.0
X45.0Y-31.0
X47.08Y-61.0
X47.08Y-65.0
X47.08Y-69.0
X50.0Y-34.0
X50.0Y-40.0
X50.0Y-46.0
X50.08Y-26.0
X50.08Y-31.0
X52.0Y-49.0
X55.08Y-34.0
X55.08Y-40.0
X55.08Y-46.0
X57.08Y-49.0
X60.0Y-44.92
X60.0Y-50.0
T3
X65.0Y-46.0
X66.27Y-46.0
X67.54Y-46.0
T4
X42.0Y-36.0
X44.5Y-36.0
X60.0Y-65.0
X60.0Y-67.54
X60.0Y-70.08
X60.0Y-72.62
X67.62Y-65.0
X67.62Y-67.54
X67.62Y-70.08
X67.62Y-72.62
X70.0Y-29.0
X72.5Y-29.0
X78.0Y-60.0
X80.5Y-60.0
T5
X70.0Y-40.0
X72.159Y-40.0
X74.318Y-40.0
X76.477Y-40.0
T6
X27.0Y-24.5
X27.0Y-27.04
X27.0Y-29.58
X27.0Y-32.12
X27.0Y-34.66
X27.0Y-37.2
X27.0Y-39.74
X27.0Y-42.28
X27.0Y-44.82
X27.0Y-47.36
X27.0Y-49.9
X27.0Y-52.44
X27.0Y-54.98
X27.0Y-57.52
X27.0Y-60.06
X27.0Y-62.6
X27.0Y-65.14
X27.0Y-67.68
X27.0Y-70.22
X27.0Y-72.76
X29.54Y-24.5
X29.54Y-27.04
X29.54Y-29.58
X29.54Y-32.12
X29.54Y-34.66
X29.54Y-37.2
X29.54Y-39.74
X29.54Y-42.28
X29.54Y-44.82
X29.54Y-47.36
X29.54Y-49.9
X29.54Y-52.44
X29.54Y-54.98
X29.54Y-57.52
X29.54Y-60.06
X29.54Y-62.6
X29.54Y-65.14
X29.54Y-67.68
X29.54Y-70.22
X29.54Y-72.76
X79.0Y-46.0
X81.54Y-46.0
T7
X52.0Y-25.0
X54.0Y-30.0
X64.0Y-71.5
X70.0Y-55.0
X76.0Y-50.0
X80.0Y-55.0
M30
