%TF.GenerationSoftware,KiCad,Pcbnew,9.0.6*%
%TF.CreationDate,2026-10-02T13:30:41-05:00*%
%TF.ProjectId,pi5-cooling-hat,7069352d-636f-46f6-9c69-6e672d686174,rev?*%
%TF.SameCoordinates,Original*%
%TF.FileFunction,Legend,Top*%
%TF.FilePolarity,Positive*%
%FSLAX46Y46*%
G04 Gerber Fmt 4.6, Leading zero omitted, Abs format (unit mm)*
G04 Created by KiCad (PCBNEW 9.0.6) date 2026-10-02 13:30:41*
%MOMM*%
%LPD*%
G01*
G04 APERTURE LIST*
%ADD10C,0.180000*%
%ADD11C,0.150000*%
%ADD12C,0.120000*%
G04 APERTURE END LIST*
D10*
X45428570Y-21653259D02*
X45619046Y-21653259D01*
X45619046Y-21653259D02*
X45714284Y-21700878D01*
X45714284Y-21700878D02*
X45809522Y-21796116D01*
X45809522Y-21796116D02*
X45857141Y-21986592D01*
X45857141Y-21986592D02*
X45857141Y-22319925D01*
X45857141Y-22319925D02*
X45809522Y-22510401D01*
X45809522Y-22510401D02*
X45714284Y-22605640D01*
X45714284Y-22605640D02*
X45619046Y-22653259D01*
X45619046Y-22653259D02*
X45428570Y-22653259D01*
X45428570Y-22653259D02*
X45333332Y-22605640D01*
X45333332Y-22605640D02*
X45238094Y-22510401D01*
X45238094Y-22510401D02*
X45190475Y-22319925D01*
X45190475Y-22319925D02*
X45190475Y-21986592D01*
X45190475Y-21986592D02*
X45238094Y-21796116D01*
X45238094Y-21796116D02*
X45333332Y-21700878D01*
X45333332Y-21700878D02*
X45428570Y-21653259D01*
X46857141Y-22653259D02*
X46523808Y-22177068D01*
X46285713Y-22653259D02*
X46285713Y-21653259D01*
X46285713Y-21653259D02*
X46666665Y-21653259D01*
X46666665Y-21653259D02*
X46761903Y-21700878D01*
X46761903Y-21700878D02*
X46809522Y-21748497D01*
X46809522Y-21748497D02*
X46857141Y-21843735D01*
X46857141Y-21843735D02*
X46857141Y-21986592D01*
X46857141Y-21986592D02*
X46809522Y-22081830D01*
X46809522Y-22081830D02*
X46761903Y-22129449D01*
X46761903Y-22129449D02*
X46666665Y-22177068D01*
X46666665Y-22177068D02*
X46285713Y-22177068D01*
X47857141Y-22558020D02*
X47809522Y-22605640D01*
X47809522Y-22605640D02*
X47666665Y-22653259D01*
X47666665Y-22653259D02*
X47571427Y-22653259D01*
X47571427Y-22653259D02*
X47428570Y-22605640D01*
X47428570Y-22605640D02*
X47333332Y-22510401D01*
X47333332Y-22510401D02*
X47285713Y-22415163D01*
X47285713Y-22415163D02*
X47238094Y-22224687D01*
X47238094Y-22224687D02*
X47238094Y-22081830D01*
X47238094Y-22081830D02*
X47285713Y-21891354D01*
X47285713Y-21891354D02*
X47333332Y-21796116D01*
X47333332Y-21796116D02*
X47428570Y-21700878D01*
X47428570Y-21700878D02*
X47571427Y-21653259D01*
X47571427Y-21653259D02*
X47666665Y-21653259D01*
X47666665Y-21653259D02*
X47809522Y-21700878D01*
X47809522Y-21700878D02*
X47857141Y-21748497D01*
X48238094Y-22367544D02*
X48714284Y-22367544D01*
X48142856Y-22653259D02*
X48476189Y-21653259D01*
X48476189Y-21653259D02*
X48809522Y-22653259D01*
X49904761Y-22653259D02*
X49904761Y-21653259D01*
X49904761Y-21653259D02*
X50285713Y-21653259D01*
X50285713Y-21653259D02*
X50380951Y-21700878D01*
X50380951Y-21700878D02*
X50428570Y-21748497D01*
X50428570Y-21748497D02*
X50476189Y-21843735D01*
X50476189Y-21843735D02*
X50476189Y-21986592D01*
X50476189Y-21986592D02*
X50428570Y-22081830D01*
X50428570Y-22081830D02*
X50380951Y-22129449D01*
X50380951Y-22129449D02*
X50285713Y-22177068D01*
X50285713Y-22177068D02*
X49904761Y-22177068D01*
X50904761Y-22653259D02*
X50904761Y-21986592D01*
X50904761Y-21653259D02*
X50857142Y-21700878D01*
X50857142Y-21700878D02*
X50904761Y-21748497D01*
X50904761Y-21748497D02*
X50952380Y-21700878D01*
X50952380Y-21700878D02*
X50904761Y-21653259D01*
X50904761Y-21653259D02*
X50904761Y-21748497D01*
X52619046Y-21653259D02*
X52142856Y-21653259D01*
X52142856Y-21653259D02*
X52095237Y-22129449D01*
X52095237Y-22129449D02*
X52142856Y-22081830D01*
X52142856Y-22081830D02*
X52238094Y-22034211D01*
X52238094Y-22034211D02*
X52476189Y-22034211D01*
X52476189Y-22034211D02*
X52571427Y-22081830D01*
X52571427Y-22081830D02*
X52619046Y-22129449D01*
X52619046Y-22129449D02*
X52666665Y-22224687D01*
X52666665Y-22224687D02*
X52666665Y-22462782D01*
X52666665Y-22462782D02*
X52619046Y-22558020D01*
X52619046Y-22558020D02*
X52571427Y-22605640D01*
X52571427Y-22605640D02*
X52476189Y-22653259D01*
X52476189Y-22653259D02*
X52238094Y-22653259D01*
X52238094Y-22653259D02*
X52142856Y-22605640D01*
X52142856Y-22605640D02*
X52095237Y-22558020D01*
X53857142Y-22653259D02*
X53857142Y-21653259D01*
X53857142Y-21653259D02*
X54238094Y-21653259D01*
X54238094Y-21653259D02*
X54333332Y-21700878D01*
X54333332Y-21700878D02*
X54380951Y-21748497D01*
X54380951Y-21748497D02*
X54428570Y-21843735D01*
X54428570Y-21843735D02*
X54428570Y-21986592D01*
X54428570Y-21986592D02*
X54380951Y-22081830D01*
X54380951Y-22081830D02*
X54333332Y-22129449D01*
X54333332Y-22129449D02*
X54238094Y-22177068D01*
X54238094Y-22177068D02*
X53857142Y-22177068D01*
X54761904Y-21653259D02*
X54999999Y-22653259D01*
X54999999Y-22653259D02*
X55190475Y-21938973D01*
X55190475Y-21938973D02*
X55380951Y-22653259D01*
X55380951Y-22653259D02*
X55619047Y-21653259D01*
X55999999Y-22653259D02*
X55999999Y-21653259D01*
X55999999Y-21653259D02*
X56333332Y-22367544D01*
X56333332Y-22367544D02*
X56666665Y-21653259D01*
X56666665Y-21653259D02*
X56666665Y-22653259D01*
X58238094Y-22129449D02*
X57904761Y-22129449D01*
X57904761Y-22653259D02*
X57904761Y-21653259D01*
X57904761Y-21653259D02*
X58380951Y-21653259D01*
X58714285Y-22367544D02*
X59190475Y-22367544D01*
X58619047Y-22653259D02*
X58952380Y-21653259D01*
X58952380Y-21653259D02*
X59285713Y-22653259D01*
X59619047Y-22653259D02*
X59619047Y-21653259D01*
X59619047Y-21653259D02*
X60190475Y-22653259D01*
X60190475Y-22653259D02*
X60190475Y-21653259D01*
X61428571Y-22653259D02*
X61428571Y-21653259D01*
X61428571Y-22129449D02*
X61999999Y-22129449D01*
X61999999Y-22653259D02*
X61999999Y-21653259D01*
X62428571Y-22367544D02*
X62904761Y-22367544D01*
X62333333Y-22653259D02*
X62666666Y-21653259D01*
X62666666Y-21653259D02*
X62999999Y-22653259D01*
X63190476Y-21653259D02*
X63761904Y-21653259D01*
X63476190Y-22653259D02*
X63476190Y-21653259D01*
X65428571Y-22653259D02*
X65095238Y-22177068D01*
X64857143Y-22653259D02*
X64857143Y-21653259D01*
X64857143Y-21653259D02*
X65238095Y-21653259D01*
X65238095Y-21653259D02*
X65333333Y-21700878D01*
X65333333Y-21700878D02*
X65380952Y-21748497D01*
X65380952Y-21748497D02*
X65428571Y-21843735D01*
X65428571Y-21843735D02*
X65428571Y-21986592D01*
X65428571Y-21986592D02*
X65380952Y-22081830D01*
X65380952Y-22081830D02*
X65333333Y-22129449D01*
X65333333Y-22129449D02*
X65238095Y-22177068D01*
X65238095Y-22177068D02*
X64857143Y-22177068D01*
X65857143Y-22129449D02*
X66190476Y-22129449D01*
X66333333Y-22653259D02*
X65857143Y-22653259D01*
X65857143Y-22653259D02*
X65857143Y-21653259D01*
X65857143Y-21653259D02*
X66333333Y-21653259D01*
X66619048Y-21653259D02*
X66952381Y-22653259D01*
X66952381Y-22653259D02*
X67285714Y-21653259D01*
X68333334Y-22367544D02*
X68809524Y-22367544D01*
X68238096Y-22653259D02*
X68571429Y-21653259D01*
X68571429Y-21653259D02*
X68904762Y-22653259D01*
D11*
X75738095Y-26956819D02*
X76309523Y-26956819D01*
X76023809Y-27956819D02*
X76023809Y-26956819D01*
X76642857Y-27956819D02*
X76642857Y-26956819D01*
X76642857Y-26956819D02*
X77023809Y-26956819D01*
X77023809Y-26956819D02*
X77119047Y-27004438D01*
X77119047Y-27004438D02*
X77166666Y-27052057D01*
X77166666Y-27052057D02*
X77214285Y-27147295D01*
X77214285Y-27147295D02*
X77214285Y-27290152D01*
X77214285Y-27290152D02*
X77166666Y-27385390D01*
X77166666Y-27385390D02*
X77119047Y-27433009D01*
X77119047Y-27433009D02*
X77023809Y-27480628D01*
X77023809Y-27480628D02*
X76642857Y-27480628D01*
X77595238Y-27052057D02*
X77642857Y-27004438D01*
X77642857Y-27004438D02*
X77738095Y-26956819D01*
X77738095Y-26956819D02*
X77976190Y-26956819D01*
X77976190Y-26956819D02*
X78071428Y-27004438D01*
X78071428Y-27004438D02*
X78119047Y-27052057D01*
X78119047Y-27052057D02*
X78166666Y-27147295D01*
X78166666Y-27147295D02*
X78166666Y-27242533D01*
X78166666Y-27242533D02*
X78119047Y-27385390D01*
X78119047Y-27385390D02*
X77547619Y-27956819D01*
X77547619Y-27956819D02*
X78166666Y-27956819D01*
X22738095Y-69804819D02*
X22738095Y-68804819D01*
X22738095Y-69281009D02*
X23309523Y-69281009D01*
X23309523Y-69804819D02*
X23309523Y-68804819D01*
X23690476Y-68804819D02*
X24309523Y-68804819D01*
X24309523Y-68804819D02*
X23976190Y-69185771D01*
X23976190Y-69185771D02*
X24119047Y-69185771D01*
X24119047Y-69185771D02*
X24214285Y-69233390D01*
X24214285Y-69233390D02*
X24261904Y-69281009D01*
X24261904Y-69281009D02*
X24309523Y-69376247D01*
X24309523Y-69376247D02*
X24309523Y-69614342D01*
X24309523Y-69614342D02*
X24261904Y-69709580D01*
X24261904Y-69709580D02*
X24214285Y-69757200D01*
X24214285Y-69757200D02*
X24119047Y-69804819D01*
X24119047Y-69804819D02*
X23833333Y-69804819D01*
X23833333Y-69804819D02*
X23738095Y-69757200D01*
X23738095Y-69757200D02*
X23690476Y-69709580D01*
X47354819Y-35086666D02*
X46878628Y-35419999D01*
X47354819Y-35658094D02*
X46354819Y-35658094D01*
X46354819Y-35658094D02*
X46354819Y-35277142D01*
X46354819Y-35277142D02*
X46402438Y-35181904D01*
X46402438Y-35181904D02*
X46450057Y-35134285D01*
X46450057Y-35134285D02*
X46545295Y-35086666D01*
X46545295Y-35086666D02*
X46688152Y-35086666D01*
X46688152Y-35086666D02*
X46783390Y-35134285D01*
X46783390Y-35134285D02*
X46831009Y-35181904D01*
X46831009Y-35181904D02*
X46878628Y-35277142D01*
X46878628Y-35277142D02*
X46878628Y-35658094D01*
X46450057Y-34705713D02*
X46402438Y-34658094D01*
X46402438Y-34658094D02*
X46354819Y-34562856D01*
X46354819Y-34562856D02*
X46354819Y-34324761D01*
X46354819Y-34324761D02*
X46402438Y-34229523D01*
X46402438Y-34229523D02*
X46450057Y-34181904D01*
X46450057Y-34181904D02*
X46545295Y-34134285D01*
X46545295Y-34134285D02*
X46640533Y-34134285D01*
X46640533Y-34134285D02*
X46783390Y-34181904D01*
X46783390Y-34181904D02*
X47354819Y-34753332D01*
X47354819Y-34753332D02*
X47354819Y-34134285D01*
X37913333Y-40084819D02*
X37580000Y-39608628D01*
X37341905Y-40084819D02*
X37341905Y-39084819D01*
X37341905Y-39084819D02*
X37722857Y-39084819D01*
X37722857Y-39084819D02*
X37818095Y-39132438D01*
X37818095Y-39132438D02*
X37865714Y-39180057D01*
X37865714Y-39180057D02*
X37913333Y-39275295D01*
X37913333Y-39275295D02*
X37913333Y-39418152D01*
X37913333Y-39418152D02*
X37865714Y-39513390D01*
X37865714Y-39513390D02*
X37818095Y-39561009D01*
X37818095Y-39561009D02*
X37722857Y-39608628D01*
X37722857Y-39608628D02*
X37341905Y-39608628D01*
X38770476Y-39418152D02*
X38770476Y-40084819D01*
X38532381Y-39037200D02*
X38294286Y-39751485D01*
X38294286Y-39751485D02*
X38913333Y-39751485D01*
X76738095Y-41956819D02*
X77309523Y-41956819D01*
X77023809Y-42956819D02*
X77023809Y-41956819D01*
X77642857Y-42956819D02*
X77642857Y-41956819D01*
X77642857Y-41956819D02*
X78023809Y-41956819D01*
X78023809Y-41956819D02*
X78119047Y-42004438D01*
X78119047Y-42004438D02*
X78166666Y-42052057D01*
X78166666Y-42052057D02*
X78214285Y-42147295D01*
X78214285Y-42147295D02*
X78214285Y-42290152D01*
X78214285Y-42290152D02*
X78166666Y-42385390D01*
X78166666Y-42385390D02*
X78119047Y-42433009D01*
X78119047Y-42433009D02*
X78023809Y-42480628D01*
X78023809Y-42480628D02*
X77642857Y-42480628D01*
X78547619Y-41956819D02*
X79166666Y-41956819D01*
X79166666Y-41956819D02*
X78833333Y-42337771D01*
X78833333Y-42337771D02*
X78976190Y-42337771D01*
X78976190Y-42337771D02*
X79071428Y-42385390D01*
X79071428Y-42385390D02*
X79119047Y-42433009D01*
X79119047Y-42433009D02*
X79166666Y-42528247D01*
X79166666Y-42528247D02*
X79166666Y-42766342D01*
X79166666Y-42766342D02*
X79119047Y-42861580D01*
X79119047Y-42861580D02*
X79071428Y-42909200D01*
X79071428Y-42909200D02*
X78976190Y-42956819D01*
X78976190Y-42956819D02*
X78690476Y-42956819D01*
X78690476Y-42956819D02*
X78595238Y-42909200D01*
X78595238Y-42909200D02*
X78547619Y-42861580D01*
X49174761Y-34190057D02*
X49079523Y-34142438D01*
X49079523Y-34142438D02*
X48984285Y-34047200D01*
X48984285Y-34047200D02*
X48841428Y-33904342D01*
X48841428Y-33904342D02*
X48746190Y-33856723D01*
X48746190Y-33856723D02*
X48650952Y-33856723D01*
X48698571Y-34094819D02*
X48603333Y-34047200D01*
X48603333Y-34047200D02*
X48508095Y-33951961D01*
X48508095Y-33951961D02*
X48460476Y-33761485D01*
X48460476Y-33761485D02*
X48460476Y-33428152D01*
X48460476Y-33428152D02*
X48508095Y-33237676D01*
X48508095Y-33237676D02*
X48603333Y-33142438D01*
X48603333Y-33142438D02*
X48698571Y-33094819D01*
X48698571Y-33094819D02*
X48889047Y-33094819D01*
X48889047Y-33094819D02*
X48984285Y-33142438D01*
X48984285Y-33142438D02*
X49079523Y-33237676D01*
X49079523Y-33237676D02*
X49127142Y-33428152D01*
X49127142Y-33428152D02*
X49127142Y-33761485D01*
X49127142Y-33761485D02*
X49079523Y-33951961D01*
X49079523Y-33951961D02*
X48984285Y-34047200D01*
X48984285Y-34047200D02*
X48889047Y-34094819D01*
X48889047Y-34094819D02*
X48698571Y-34094819D01*
X50079523Y-34094819D02*
X49508095Y-34094819D01*
X49793809Y-34094819D02*
X49793809Y-33094819D01*
X49793809Y-33094819D02*
X49698571Y-33237676D01*
X49698571Y-33237676D02*
X49603333Y-33332914D01*
X49603333Y-33332914D02*
X49508095Y-33380533D01*
X74333333Y-58859580D02*
X74285714Y-58907200D01*
X74285714Y-58907200D02*
X74142857Y-58954819D01*
X74142857Y-58954819D02*
X74047619Y-58954819D01*
X74047619Y-58954819D02*
X73904762Y-58907200D01*
X73904762Y-58907200D02*
X73809524Y-58811961D01*
X73809524Y-58811961D02*
X73761905Y-58716723D01*
X73761905Y-58716723D02*
X73714286Y-58526247D01*
X73714286Y-58526247D02*
X73714286Y-58383390D01*
X73714286Y-58383390D02*
X73761905Y-58192914D01*
X73761905Y-58192914D02*
X73809524Y-58097676D01*
X73809524Y-58097676D02*
X73904762Y-58002438D01*
X73904762Y-58002438D02*
X74047619Y-57954819D01*
X74047619Y-57954819D02*
X74142857Y-57954819D01*
X74142857Y-57954819D02*
X74285714Y-58002438D01*
X74285714Y-58002438D02*
X74333333Y-58050057D01*
X74666667Y-57954819D02*
X75285714Y-57954819D01*
X75285714Y-57954819D02*
X74952381Y-58335771D01*
X74952381Y-58335771D02*
X75095238Y-58335771D01*
X75095238Y-58335771D02*
X75190476Y-58383390D01*
X75190476Y-58383390D02*
X75238095Y-58431009D01*
X75238095Y-58431009D02*
X75285714Y-58526247D01*
X75285714Y-58526247D02*
X75285714Y-58764342D01*
X75285714Y-58764342D02*
X75238095Y-58859580D01*
X75238095Y-58859580D02*
X75190476Y-58907200D01*
X75190476Y-58907200D02*
X75095238Y-58954819D01*
X75095238Y-58954819D02*
X74809524Y-58954819D01*
X74809524Y-58954819D02*
X74714286Y-58907200D01*
X74714286Y-58907200D02*
X74666667Y-58859580D01*
X72333333Y-24859580D02*
X72285714Y-24907200D01*
X72285714Y-24907200D02*
X72142857Y-24954819D01*
X72142857Y-24954819D02*
X72047619Y-24954819D01*
X72047619Y-24954819D02*
X71904762Y-24907200D01*
X71904762Y-24907200D02*
X71809524Y-24811961D01*
X71809524Y-24811961D02*
X71761905Y-24716723D01*
X71761905Y-24716723D02*
X71714286Y-24526247D01*
X71714286Y-24526247D02*
X71714286Y-24383390D01*
X71714286Y-24383390D02*
X71761905Y-24192914D01*
X71761905Y-24192914D02*
X71809524Y-24097676D01*
X71809524Y-24097676D02*
X71904762Y-24002438D01*
X71904762Y-24002438D02*
X72047619Y-23954819D01*
X72047619Y-23954819D02*
X72142857Y-23954819D01*
X72142857Y-23954819D02*
X72285714Y-24002438D01*
X72285714Y-24002438D02*
X72333333Y-24050057D01*
X72714286Y-24050057D02*
X72761905Y-24002438D01*
X72761905Y-24002438D02*
X72857143Y-23954819D01*
X72857143Y-23954819D02*
X73095238Y-23954819D01*
X73095238Y-23954819D02*
X73190476Y-24002438D01*
X73190476Y-24002438D02*
X73238095Y-24050057D01*
X73238095Y-24050057D02*
X73285714Y-24145295D01*
X73285714Y-24145295D02*
X73285714Y-24240533D01*
X73285714Y-24240533D02*
X73238095Y-24383390D01*
X73238095Y-24383390D02*
X72666667Y-24954819D01*
X72666667Y-24954819D02*
X73285714Y-24954819D01*
X22738095Y-20304819D02*
X22738095Y-19304819D01*
X22738095Y-19781009D02*
X23309523Y-19781009D01*
X23309523Y-20304819D02*
X23309523Y-19304819D01*
X24309523Y-20304819D02*
X23738095Y-20304819D01*
X24023809Y-20304819D02*
X24023809Y-19304819D01*
X24023809Y-19304819D02*
X23928571Y-19447676D01*
X23928571Y-19447676D02*
X23833333Y-19542914D01*
X23833333Y-19542914D02*
X23738095Y-19590533D01*
X46913333Y-28084819D02*
X46580000Y-27608628D01*
X46341905Y-28084819D02*
X46341905Y-27084819D01*
X46341905Y-27084819D02*
X46722857Y-27084819D01*
X46722857Y-27084819D02*
X46818095Y-27132438D01*
X46818095Y-27132438D02*
X46865714Y-27180057D01*
X46865714Y-27180057D02*
X46913333Y-27275295D01*
X46913333Y-27275295D02*
X46913333Y-27418152D01*
X46913333Y-27418152D02*
X46865714Y-27513390D01*
X46865714Y-27513390D02*
X46818095Y-27561009D01*
X46818095Y-27561009D02*
X46722857Y-27608628D01*
X46722857Y-27608628D02*
X46341905Y-27608628D01*
X47246667Y-27084819D02*
X47865714Y-27084819D01*
X47865714Y-27084819D02*
X47532381Y-27465771D01*
X47532381Y-27465771D02*
X47675238Y-27465771D01*
X47675238Y-27465771D02*
X47770476Y-27513390D01*
X47770476Y-27513390D02*
X47818095Y-27561009D01*
X47818095Y-27561009D02*
X47865714Y-27656247D01*
X47865714Y-27656247D02*
X47865714Y-27894342D01*
X47865714Y-27894342D02*
X47818095Y-27989580D01*
X47818095Y-27989580D02*
X47770476Y-28037200D01*
X47770476Y-28037200D02*
X47675238Y-28084819D01*
X47675238Y-28084819D02*
X47389524Y-28084819D01*
X47389524Y-28084819D02*
X47294286Y-28037200D01*
X47294286Y-28037200D02*
X47246667Y-27989580D01*
X54341905Y-24534819D02*
X54341905Y-23534819D01*
X54341905Y-23534819D02*
X54580000Y-23534819D01*
X54580000Y-23534819D02*
X54722857Y-23582438D01*
X54722857Y-23582438D02*
X54818095Y-23677676D01*
X54818095Y-23677676D02*
X54865714Y-23772914D01*
X54865714Y-23772914D02*
X54913333Y-23963390D01*
X54913333Y-23963390D02*
X54913333Y-24106247D01*
X54913333Y-24106247D02*
X54865714Y-24296723D01*
X54865714Y-24296723D02*
X54818095Y-24391961D01*
X54818095Y-24391961D02*
X54722857Y-24487200D01*
X54722857Y-24487200D02*
X54580000Y-24534819D01*
X54580000Y-24534819D02*
X54341905Y-24534819D01*
X55865714Y-24534819D02*
X55294286Y-24534819D01*
X55580000Y-24534819D02*
X55580000Y-23534819D01*
X55580000Y-23534819D02*
X55484762Y-23677676D01*
X55484762Y-23677676D02*
X55389524Y-23772914D01*
X55389524Y-23772914D02*
X55294286Y-23820533D01*
X49738095Y-25254819D02*
X49738095Y-24254819D01*
X50309523Y-25254819D02*
X49880952Y-24683390D01*
X50309523Y-24254819D02*
X49738095Y-24826247D01*
X80738095Y-20304819D02*
X80738095Y-19304819D01*
X80738095Y-19781009D02*
X81309523Y-19781009D01*
X81309523Y-20304819D02*
X81309523Y-19304819D01*
X81738095Y-19400057D02*
X81785714Y-19352438D01*
X81785714Y-19352438D02*
X81880952Y-19304819D01*
X81880952Y-19304819D02*
X82119047Y-19304819D01*
X82119047Y-19304819D02*
X82214285Y-19352438D01*
X82214285Y-19352438D02*
X82261904Y-19400057D01*
X82261904Y-19400057D02*
X82309523Y-19495295D01*
X82309523Y-19495295D02*
X82309523Y-19590533D01*
X82309523Y-19590533D02*
X82261904Y-19733390D01*
X82261904Y-19733390D02*
X81690476Y-20304819D01*
X81690476Y-20304819D02*
X82309523Y-20304819D01*
X80738095Y-43956819D02*
X81309523Y-43956819D01*
X81023809Y-44956819D02*
X81023809Y-43956819D01*
X81642857Y-44956819D02*
X81642857Y-43956819D01*
X81642857Y-43956819D02*
X82023809Y-43956819D01*
X82023809Y-43956819D02*
X82119047Y-44004438D01*
X82119047Y-44004438D02*
X82166666Y-44052057D01*
X82166666Y-44052057D02*
X82214285Y-44147295D01*
X82214285Y-44147295D02*
X82214285Y-44290152D01*
X82214285Y-44290152D02*
X82166666Y-44385390D01*
X82166666Y-44385390D02*
X82119047Y-44433009D01*
X82119047Y-44433009D02*
X82023809Y-44480628D01*
X82023809Y-44480628D02*
X81642857Y-44480628D01*
X83071428Y-44290152D02*
X83071428Y-44956819D01*
X82833333Y-43909200D02*
X82595238Y-44623485D01*
X82595238Y-44623485D02*
X83214285Y-44623485D01*
X80738095Y-69804819D02*
X80738095Y-68804819D01*
X80738095Y-69281009D02*
X81309523Y-69281009D01*
X81309523Y-69804819D02*
X81309523Y-68804819D01*
X82214285Y-69138152D02*
X82214285Y-69804819D01*
X81976190Y-68757200D02*
X81738095Y-69471485D01*
X81738095Y-69471485D02*
X82357142Y-69471485D01*
X37913333Y-35284819D02*
X37580000Y-34808628D01*
X37341905Y-35284819D02*
X37341905Y-34284819D01*
X37341905Y-34284819D02*
X37722857Y-34284819D01*
X37722857Y-34284819D02*
X37818095Y-34332438D01*
X37818095Y-34332438D02*
X37865714Y-34380057D01*
X37865714Y-34380057D02*
X37913333Y-34475295D01*
X37913333Y-34475295D02*
X37913333Y-34618152D01*
X37913333Y-34618152D02*
X37865714Y-34713390D01*
X37865714Y-34713390D02*
X37818095Y-34761009D01*
X37818095Y-34761009D02*
X37722857Y-34808628D01*
X37722857Y-34808628D02*
X37341905Y-34808628D01*
X38865714Y-35284819D02*
X38294286Y-35284819D01*
X38580000Y-35284819D02*
X38580000Y-34284819D01*
X38580000Y-34284819D02*
X38484762Y-34427676D01*
X38484762Y-34427676D02*
X38389524Y-34522914D01*
X38389524Y-34522914D02*
X38294286Y-34570533D01*
X34666666Y-22601009D02*
X34333333Y-22601009D01*
X34333333Y-23124819D02*
X34333333Y-22124819D01*
X34333333Y-22124819D02*
X34809523Y-22124819D01*
X35714285Y-23124819D02*
X35142857Y-23124819D01*
X35428571Y-23124819D02*
X35428571Y-22124819D01*
X35428571Y-22124819D02*
X35333333Y-22267676D01*
X35333333Y-22267676D02*
X35238095Y-22362914D01*
X35238095Y-22362914D02*
X35142857Y-22410533D01*
X46913333Y-59084819D02*
X46580000Y-58608628D01*
X46341905Y-59084819D02*
X46341905Y-58084819D01*
X46341905Y-58084819D02*
X46722857Y-58084819D01*
X46722857Y-58084819D02*
X46818095Y-58132438D01*
X46818095Y-58132438D02*
X46865714Y-58180057D01*
X46865714Y-58180057D02*
X46913333Y-58275295D01*
X46913333Y-58275295D02*
X46913333Y-58418152D01*
X46913333Y-58418152D02*
X46865714Y-58513390D01*
X46865714Y-58513390D02*
X46818095Y-58561009D01*
X46818095Y-58561009D02*
X46722857Y-58608628D01*
X46722857Y-58608628D02*
X46341905Y-58608628D01*
X47818095Y-58084819D02*
X47341905Y-58084819D01*
X47341905Y-58084819D02*
X47294286Y-58561009D01*
X47294286Y-58561009D02*
X47341905Y-58513390D01*
X47341905Y-58513390D02*
X47437143Y-58465771D01*
X47437143Y-58465771D02*
X47675238Y-58465771D01*
X47675238Y-58465771D02*
X47770476Y-58513390D01*
X47770476Y-58513390D02*
X47818095Y-58561009D01*
X47818095Y-58561009D02*
X47865714Y-58656247D01*
X47865714Y-58656247D02*
X47865714Y-58894342D01*
X47865714Y-58894342D02*
X47818095Y-58989580D01*
X47818095Y-58989580D02*
X47770476Y-59037200D01*
X47770476Y-59037200D02*
X47675238Y-59084819D01*
X47675238Y-59084819D02*
X47437143Y-59084819D01*
X47437143Y-59084819D02*
X47341905Y-59037200D01*
X47341905Y-59037200D02*
X47294286Y-58989580D01*
X64083333Y-22959580D02*
X64035714Y-23007200D01*
X64035714Y-23007200D02*
X63892857Y-23054819D01*
X63892857Y-23054819D02*
X63797619Y-23054819D01*
X63797619Y-23054819D02*
X63654762Y-23007200D01*
X63654762Y-23007200D02*
X63559524Y-22911961D01*
X63559524Y-22911961D02*
X63511905Y-22816723D01*
X63511905Y-22816723D02*
X63464286Y-22626247D01*
X63464286Y-22626247D02*
X63464286Y-22483390D01*
X63464286Y-22483390D02*
X63511905Y-22292914D01*
X63511905Y-22292914D02*
X63559524Y-22197676D01*
X63559524Y-22197676D02*
X63654762Y-22102438D01*
X63654762Y-22102438D02*
X63797619Y-22054819D01*
X63797619Y-22054819D02*
X63892857Y-22054819D01*
X63892857Y-22054819D02*
X64035714Y-22102438D01*
X64035714Y-22102438D02*
X64083333Y-22150057D01*
X65035714Y-23054819D02*
X64464286Y-23054819D01*
X64750000Y-23054819D02*
X64750000Y-22054819D01*
X64750000Y-22054819D02*
X64654762Y-22197676D01*
X64654762Y-22197676D02*
X64559524Y-22292914D01*
X64559524Y-22292914D02*
X64464286Y-22340533D01*
X63048095Y-58124819D02*
X63048095Y-58934342D01*
X63048095Y-58934342D02*
X63095714Y-59029580D01*
X63095714Y-59029580D02*
X63143333Y-59077200D01*
X63143333Y-59077200D02*
X63238571Y-59124819D01*
X63238571Y-59124819D02*
X63429047Y-59124819D01*
X63429047Y-59124819D02*
X63524285Y-59077200D01*
X63524285Y-59077200D02*
X63571904Y-59029580D01*
X63571904Y-59029580D02*
X63619523Y-58934342D01*
X63619523Y-58934342D02*
X63619523Y-58124819D01*
X64619523Y-59124819D02*
X64048095Y-59124819D01*
X64333809Y-59124819D02*
X64333809Y-58124819D01*
X64333809Y-58124819D02*
X64238571Y-58267676D01*
X64238571Y-58267676D02*
X64143333Y-58362914D01*
X64143333Y-58362914D02*
X64048095Y-58410533D01*
X75738095Y-65956819D02*
X76309523Y-65956819D01*
X76023809Y-66956819D02*
X76023809Y-65956819D01*
X76642857Y-66956819D02*
X76642857Y-65956819D01*
X76642857Y-65956819D02*
X77023809Y-65956819D01*
X77023809Y-65956819D02*
X77119047Y-66004438D01*
X77119047Y-66004438D02*
X77166666Y-66052057D01*
X77166666Y-66052057D02*
X77214285Y-66147295D01*
X77214285Y-66147295D02*
X77214285Y-66290152D01*
X77214285Y-66290152D02*
X77166666Y-66385390D01*
X77166666Y-66385390D02*
X77119047Y-66433009D01*
X77119047Y-66433009D02*
X77023809Y-66480628D01*
X77023809Y-66480628D02*
X76642857Y-66480628D01*
X78119047Y-65956819D02*
X77642857Y-65956819D01*
X77642857Y-65956819D02*
X77595238Y-66433009D01*
X77595238Y-66433009D02*
X77642857Y-66385390D01*
X77642857Y-66385390D02*
X77738095Y-66337771D01*
X77738095Y-66337771D02*
X77976190Y-66337771D01*
X77976190Y-66337771D02*
X78071428Y-66385390D01*
X78071428Y-66385390D02*
X78119047Y-66433009D01*
X78119047Y-66433009D02*
X78166666Y-66528247D01*
X78166666Y-66528247D02*
X78166666Y-66766342D01*
X78166666Y-66766342D02*
X78119047Y-66861580D01*
X78119047Y-66861580D02*
X78071428Y-66909200D01*
X78071428Y-66909200D02*
X77976190Y-66956819D01*
X77976190Y-66956819D02*
X77738095Y-66956819D01*
X77738095Y-66956819D02*
X77642857Y-66909200D01*
X77642857Y-66909200D02*
X77595238Y-66861580D01*
X27936666Y-21574819D02*
X27936666Y-22289104D01*
X27936666Y-22289104D02*
X27889047Y-22431961D01*
X27889047Y-22431961D02*
X27793809Y-22527200D01*
X27793809Y-22527200D02*
X27650952Y-22574819D01*
X27650952Y-22574819D02*
X27555714Y-22574819D01*
X28936666Y-22574819D02*
X28365238Y-22574819D01*
X28650952Y-22574819D02*
X28650952Y-21574819D01*
X28650952Y-21574819D02*
X28555714Y-21717676D01*
X28555714Y-21717676D02*
X28460476Y-21812914D01*
X28460476Y-21812914D02*
X28365238Y-21860533D01*
X46913333Y-63084819D02*
X46580000Y-62608628D01*
X46341905Y-63084819D02*
X46341905Y-62084819D01*
X46341905Y-62084819D02*
X46722857Y-62084819D01*
X46722857Y-62084819D02*
X46818095Y-62132438D01*
X46818095Y-62132438D02*
X46865714Y-62180057D01*
X46865714Y-62180057D02*
X46913333Y-62275295D01*
X46913333Y-62275295D02*
X46913333Y-62418152D01*
X46913333Y-62418152D02*
X46865714Y-62513390D01*
X46865714Y-62513390D02*
X46818095Y-62561009D01*
X46818095Y-62561009D02*
X46722857Y-62608628D01*
X46722857Y-62608628D02*
X46341905Y-62608628D01*
X47770476Y-62084819D02*
X47580000Y-62084819D01*
X47580000Y-62084819D02*
X47484762Y-62132438D01*
X47484762Y-62132438D02*
X47437143Y-62180057D01*
X47437143Y-62180057D02*
X47341905Y-62322914D01*
X47341905Y-62322914D02*
X47294286Y-62513390D01*
X47294286Y-62513390D02*
X47294286Y-62894342D01*
X47294286Y-62894342D02*
X47341905Y-62989580D01*
X47341905Y-62989580D02*
X47389524Y-63037200D01*
X47389524Y-63037200D02*
X47484762Y-63084819D01*
X47484762Y-63084819D02*
X47675238Y-63084819D01*
X47675238Y-63084819D02*
X47770476Y-63037200D01*
X47770476Y-63037200D02*
X47818095Y-62989580D01*
X47818095Y-62989580D02*
X47865714Y-62894342D01*
X47865714Y-62894342D02*
X47865714Y-62656247D01*
X47865714Y-62656247D02*
X47818095Y-62561009D01*
X47818095Y-62561009D02*
X47770476Y-62513390D01*
X47770476Y-62513390D02*
X47675238Y-62465771D01*
X47675238Y-62465771D02*
X47484762Y-62465771D01*
X47484762Y-62465771D02*
X47389524Y-62513390D01*
X47389524Y-62513390D02*
X47341905Y-62561009D01*
X47341905Y-62561009D02*
X47294286Y-62656247D01*
X46913333Y-67084819D02*
X46580000Y-66608628D01*
X46341905Y-67084819D02*
X46341905Y-66084819D01*
X46341905Y-66084819D02*
X46722857Y-66084819D01*
X46722857Y-66084819D02*
X46818095Y-66132438D01*
X46818095Y-66132438D02*
X46865714Y-66180057D01*
X46865714Y-66180057D02*
X46913333Y-66275295D01*
X46913333Y-66275295D02*
X46913333Y-66418152D01*
X46913333Y-66418152D02*
X46865714Y-66513390D01*
X46865714Y-66513390D02*
X46818095Y-66561009D01*
X46818095Y-66561009D02*
X46722857Y-66608628D01*
X46722857Y-66608628D02*
X46341905Y-66608628D01*
X47246667Y-66084819D02*
X47913333Y-66084819D01*
X47913333Y-66084819D02*
X47484762Y-67084819D01*
X67074819Y-37533333D02*
X67789104Y-37533333D01*
X67789104Y-37533333D02*
X67931961Y-37580952D01*
X67931961Y-37580952D02*
X68027200Y-37676190D01*
X68027200Y-37676190D02*
X68074819Y-37819047D01*
X68074819Y-37819047D02*
X68074819Y-37914285D01*
X67170057Y-37104761D02*
X67122438Y-37057142D01*
X67122438Y-37057142D02*
X67074819Y-36961904D01*
X67074819Y-36961904D02*
X67074819Y-36723809D01*
X67074819Y-36723809D02*
X67122438Y-36628571D01*
X67122438Y-36628571D02*
X67170057Y-36580952D01*
X67170057Y-36580952D02*
X67265295Y-36533333D01*
X67265295Y-36533333D02*
X67360533Y-36533333D01*
X67360533Y-36533333D02*
X67503390Y-36580952D01*
X67503390Y-36580952D02*
X68074819Y-37152380D01*
X68074819Y-37152380D02*
X68074819Y-36533333D01*
X60738095Y-20956819D02*
X61309523Y-20956819D01*
X61023809Y-21956819D02*
X61023809Y-20956819D01*
X61642857Y-21956819D02*
X61642857Y-20956819D01*
X61642857Y-20956819D02*
X62023809Y-20956819D01*
X62023809Y-20956819D02*
X62119047Y-21004438D01*
X62119047Y-21004438D02*
X62166666Y-21052057D01*
X62166666Y-21052057D02*
X62214285Y-21147295D01*
X62214285Y-21147295D02*
X62214285Y-21290152D01*
X62214285Y-21290152D02*
X62166666Y-21385390D01*
X62166666Y-21385390D02*
X62119047Y-21433009D01*
X62119047Y-21433009D02*
X62023809Y-21480628D01*
X62023809Y-21480628D02*
X61642857Y-21480628D01*
X63166666Y-21956819D02*
X62595238Y-21956819D01*
X62880952Y-21956819D02*
X62880952Y-20956819D01*
X62880952Y-20956819D02*
X62785714Y-21099676D01*
X62785714Y-21099676D02*
X62690476Y-21194914D01*
X62690476Y-21194914D02*
X62595238Y-21242533D01*
D12*
%TO.C,TP2*%
X78700000Y-30000000D02*
G75*
G02*
X75300000Y-30000000I-1700000J0D01*
G01*
X75300000Y-30000000D02*
G75*
G02*
X78700000Y-30000000I1700000J0D01*
G01*
%TO.C,R2*%
X49270000Y-30880000D02*
X49270000Y-31650000D01*
X49270000Y-38960000D02*
X49270000Y-38190000D01*
X47900000Y-38190000D02*
X50640000Y-38190000D01*
X50640000Y-31650000D01*
X47900000Y-31650000D01*
X47900000Y-38190000D01*
%TO.C,R4*%
X34040000Y-42000000D02*
X34810000Y-42000000D01*
X42120000Y-42000000D02*
X41350000Y-42000000D01*
X34810000Y-40630000D02*
X41350000Y-40630000D01*
X41350000Y-43370000D01*
X34810000Y-43370000D01*
X34810000Y-40630000D01*
%TO.C,TP3*%
X79700000Y-45000000D02*
G75*
G02*
X76300000Y-45000000I-1700000J0D01*
G01*
X76300000Y-45000000D02*
G75*
G02*
X79700000Y-45000000I1700000J0D01*
G01*
%TO.C,Q1*%
X47470000Y-39050000D02*
X51070000Y-39050000D01*
X47431522Y-39038478D02*
G75*
G02*
X49270000Y-34599999I1838478J1838478D01*
G01*
X49270000Y-34600000D02*
G75*
G02*
X51108478Y-39038478I0J-2600000D01*
G01*
%TO.C,C3*%
X71880000Y-59630000D02*
X77120000Y-59630000D01*
X71880000Y-59967000D02*
X71880000Y-59630000D01*
X71880000Y-62370000D02*
X71880000Y-62033000D01*
X77120000Y-59630000D02*
X77120000Y-59967000D01*
X77120000Y-62033000D02*
X77120000Y-62370000D01*
X77120000Y-62370000D02*
X71880000Y-62370000D01*
%TO.C,C2*%
X69880000Y-25630000D02*
X75120000Y-25630000D01*
X69880000Y-25967000D02*
X69880000Y-25630000D01*
X69880000Y-28370000D02*
X69880000Y-28033000D01*
X75120000Y-25630000D02*
X75120000Y-25967000D01*
X75120000Y-28033000D02*
X75120000Y-28370000D01*
X75120000Y-28370000D02*
X69880000Y-28370000D01*
%TO.C,R3*%
X43040000Y-30000000D02*
X43810000Y-30000000D01*
X51120000Y-30000000D02*
X50350000Y-30000000D01*
X43810000Y-28630000D02*
X50350000Y-28630000D01*
X50350000Y-31370000D01*
X43810000Y-31370000D01*
X43810000Y-28630000D01*
%TO.C,D1*%
X51160000Y-25080000D02*
X59000000Y-25080000D01*
X51160000Y-25560000D02*
X51160000Y-25080000D01*
X51160000Y-28440000D02*
X51160000Y-28920000D01*
X51160000Y-28920000D02*
X59000000Y-28920000D01*
X52300000Y-25080000D02*
X52300000Y-28920000D01*
X52420000Y-25080000D02*
X52420000Y-28920000D01*
X52540000Y-25080000D02*
X52540000Y-28920000D01*
X59000000Y-25080000D02*
X59000000Y-25560000D01*
X59000000Y-28920000D02*
X59000000Y-28440000D01*
%TO.C,TP4*%
X83700000Y-47000000D02*
G75*
G02*
X80300000Y-47000000I-1700000J0D01*
G01*
X80300000Y-47000000D02*
G75*
G02*
X83700000Y-47000000I1700000J0D01*
G01*
%TO.C,R1*%
X34040000Y-37200000D02*
X34810000Y-37200000D01*
X42120000Y-37200000D02*
X41350000Y-37200000D01*
X34810000Y-35830000D02*
X41350000Y-35830000D01*
X41350000Y-38570000D01*
X34810000Y-38570000D01*
X34810000Y-35830000D01*
%TO.C,F1*%
X34397936Y-23590000D02*
X35602064Y-23590000D01*
X34397936Y-25410000D02*
X35602064Y-25410000D01*
%TO.C,R5*%
X43040000Y-61000000D02*
X43810000Y-61000000D01*
X51120000Y-61000000D02*
X50350000Y-61000000D01*
X43810000Y-59630000D02*
X50350000Y-59630000D01*
X50350000Y-62370000D01*
X43810000Y-62370000D01*
X43810000Y-59630000D01*
%TO.C,C1*%
X60749759Y-25161000D02*
X61379759Y-25161000D01*
X61064759Y-24846000D02*
X61064759Y-25476000D01*
X64250000Y-23770000D02*
X64250000Y-30230000D01*
X64290000Y-23770000D02*
X64290000Y-30230000D01*
X64330000Y-23771000D02*
X64330000Y-30229000D01*
X64370000Y-23772000D02*
X64370000Y-30228000D01*
X64410000Y-23774000D02*
X64410000Y-30226000D01*
X64450000Y-23776000D02*
X64450000Y-30224000D01*
X64490000Y-23779000D02*
X64490000Y-25960000D01*
X64490000Y-28040000D02*
X64490000Y-30221000D01*
X64530000Y-23782000D02*
X64530000Y-25960000D01*
X64530000Y-28040000D02*
X64530000Y-30218000D01*
X64570000Y-23786000D02*
X64570000Y-25960000D01*
X64570000Y-28040000D02*
X64570000Y-30214000D01*
X64610000Y-23790000D02*
X64610000Y-25960000D01*
X64610000Y-28040000D02*
X64610000Y-30210000D01*
X64650000Y-23795000D02*
X64650000Y-25960000D01*
X64650000Y-28040000D02*
X64650000Y-30205000D01*
X64690000Y-23800000D02*
X64690000Y-25960000D01*
X64690000Y-28040000D02*
X64690000Y-30200000D01*
X64730000Y-23805000D02*
X64730000Y-25960000D01*
X64730000Y-28040000D02*
X64730000Y-30195000D01*
X64770000Y-23812000D02*
X64770000Y-25960000D01*
X64770000Y-28040000D02*
X64770000Y-30188000D01*
X64810000Y-23818000D02*
X64810000Y-25960000D01*
X64810000Y-28040000D02*
X64810000Y-30182000D01*
X64850000Y-23826000D02*
X64850000Y-25960000D01*
X64850000Y-28040000D02*
X64850000Y-30174000D01*
X64890000Y-23833000D02*
X64890000Y-25960000D01*
X64890000Y-28040000D02*
X64890000Y-30167000D01*
X64930000Y-23841000D02*
X64930000Y-25960000D01*
X64930000Y-28040000D02*
X64930000Y-30159000D01*
X64970000Y-23850000D02*
X64970000Y-25960000D01*
X64970000Y-28040000D02*
X64970000Y-30150000D01*
X65010000Y-23860000D02*
X65010000Y-25960000D01*
X65010000Y-28040000D02*
X65010000Y-30140000D01*
X65050000Y-23869000D02*
X65050000Y-25960000D01*
X65050000Y-28040000D02*
X65050000Y-30131000D01*
X65090000Y-23880000D02*
X65090000Y-25960000D01*
X65090000Y-28040000D02*
X65090000Y-30120000D01*
X65130000Y-23891000D02*
X65130000Y-25960000D01*
X65130000Y-28040000D02*
X65130000Y-30109000D01*
X65170000Y-23902000D02*
X65170000Y-25960000D01*
X65170000Y-28040000D02*
X65170000Y-30098000D01*
X65210000Y-23914000D02*
X65210000Y-25960000D01*
X65210000Y-28040000D02*
X65210000Y-30086000D01*
X65250000Y-23927000D02*
X65250000Y-25960000D01*
X65250000Y-28040000D02*
X65250000Y-30073000D01*
X65290000Y-23940000D02*
X65290000Y-25960000D01*
X65290000Y-28040000D02*
X65290000Y-30060000D01*
X65330000Y-23953000D02*
X65330000Y-25960000D01*
X65330000Y-28040000D02*
X65330000Y-30047000D01*
X65370000Y-23968000D02*
X65370000Y-25960000D01*
X65370000Y-28040000D02*
X65370000Y-30032000D01*
X65410000Y-23983000D02*
X65410000Y-25960000D01*
X65410000Y-28040000D02*
X65410000Y-30017000D01*
X65450000Y-23998000D02*
X65450000Y-25960000D01*
X65450000Y-28040000D02*
X65450000Y-30002000D01*
X65490000Y-24014000D02*
X65490000Y-25960000D01*
X65490000Y-28040000D02*
X65490000Y-29986000D01*
X65530000Y-24031000D02*
X65530000Y-25960000D01*
X65530000Y-28040000D02*
X65530000Y-29969000D01*
X65570000Y-24048000D02*
X65570000Y-25960000D01*
X65570000Y-28040000D02*
X65570000Y-29952000D01*
X65610000Y-24066000D02*
X65610000Y-25960000D01*
X65610000Y-28040000D02*
X65610000Y-29934000D01*
X65650000Y-24085000D02*
X65650000Y-25960000D01*
X65650000Y-28040000D02*
X65650000Y-29915000D01*
X65690000Y-24104000D02*
X65690000Y-25960000D01*
X65690000Y-28040000D02*
X65690000Y-29896000D01*
X65730000Y-24124000D02*
X65730000Y-25960000D01*
X65730000Y-28040000D02*
X65730000Y-29876000D01*
X65770000Y-24145000D02*
X65770000Y-25960000D01*
X65770000Y-28040000D02*
X65770000Y-29855000D01*
X65810000Y-24166000D02*
X65810000Y-25960000D01*
X65810000Y-28040000D02*
X65810000Y-29834000D01*
X65850000Y-24188000D02*
X65850000Y-25960000D01*
X65850000Y-28040000D02*
X65850000Y-29812000D01*
X65890000Y-24211000D02*
X65890000Y-25960000D01*
X65890000Y-28040000D02*
X65890000Y-29789000D01*
X65930000Y-24235000D02*
X65930000Y-25960000D01*
X65930000Y-28040000D02*
X65930000Y-29765000D01*
X65970000Y-24259000D02*
X65970000Y-25960000D01*
X65970000Y-28040000D02*
X65970000Y-29741000D01*
X66010000Y-24284000D02*
X66010000Y-25960000D01*
X66010000Y-28040000D02*
X66010000Y-29716000D01*
X66050000Y-24310000D02*
X66050000Y-25960000D01*
X66050000Y-28040000D02*
X66050000Y-29690000D01*
X66090000Y-24337000D02*
X66090000Y-25960000D01*
X66090000Y-28040000D02*
X66090000Y-29663000D01*
X66130000Y-24364000D02*
X66130000Y-25960000D01*
X66130000Y-28040000D02*
X66130000Y-29636000D01*
X66170000Y-24393000D02*
X66170000Y-25960000D01*
X66170000Y-28040000D02*
X66170000Y-29607000D01*
X66210000Y-24423000D02*
X66210000Y-25960000D01*
X66210000Y-28040000D02*
X66210000Y-29577000D01*
X66250000Y-24453000D02*
X66250000Y-25960000D01*
X66250000Y-28040000D02*
X66250000Y-29547000D01*
X66290000Y-24484000D02*
X66290000Y-25960000D01*
X66290000Y-28040000D02*
X66290000Y-29516000D01*
X66330000Y-24517000D02*
X66330000Y-25960000D01*
X66330000Y-28040000D02*
X66330000Y-29483000D01*
X66370000Y-24550000D02*
X66370000Y-25960000D01*
X66370000Y-28040000D02*
X66370000Y-29450000D01*
X66410000Y-24585000D02*
X66410000Y-25960000D01*
X66410000Y-28040000D02*
X66410000Y-29415000D01*
X66450000Y-24621000D02*
X66450000Y-25960000D01*
X66450000Y-28040000D02*
X66450000Y-29379000D01*
X66490000Y-24658000D02*
X66490000Y-25960000D01*
X66490000Y-28040000D02*
X66490000Y-29342000D01*
X66530000Y-24696000D02*
X66530000Y-25960000D01*
X66530000Y-28040000D02*
X66530000Y-29304000D01*
X66570000Y-24736000D02*
X66570000Y-29264000D01*
X66610000Y-24777000D02*
X66610000Y-29223000D01*
X66650000Y-24819000D02*
X66650000Y-29181000D01*
X66690000Y-24863000D02*
X66690000Y-29137000D01*
X66730000Y-24909000D02*
X66730000Y-29091000D01*
X66770000Y-24956000D02*
X66770000Y-29044000D01*
X66810000Y-25005000D02*
X66810000Y-28995000D01*
X66850000Y-25057000D02*
X66850000Y-28943000D01*
X66890000Y-25110000D02*
X66890000Y-28890000D01*
X66930000Y-25166000D02*
X66930000Y-28834000D01*
X66970000Y-25225000D02*
X66970000Y-28775000D01*
X67010000Y-25286000D02*
X67010000Y-28714000D01*
X67050000Y-25351000D02*
X67050000Y-28649000D01*
X67090000Y-25419000D02*
X67090000Y-28581000D01*
X67130000Y-25491000D02*
X67130000Y-28509000D01*
X67170000Y-25568000D02*
X67170000Y-28432000D01*
X67210000Y-25650000D02*
X67210000Y-28350000D01*
X67250000Y-25739000D02*
X67250000Y-28261000D01*
X67290000Y-25835000D02*
X67290000Y-28165000D01*
X67330000Y-25942000D02*
X67330000Y-28058000D01*
X67370000Y-26061000D02*
X67370000Y-27939000D01*
X67410000Y-26199000D02*
X67410000Y-27801000D01*
X67450000Y-26367000D02*
X67450000Y-27633000D01*
X67490000Y-26598000D02*
X67490000Y-27402000D01*
X67520000Y-27000000D02*
G75*
G02*
X60980000Y-27000000I-3270000J0D01*
G01*
X60980000Y-27000000D02*
G75*
G02*
X67520000Y-27000000I3270000J0D01*
G01*
%TO.C,U1*%
X61160000Y-59670000D02*
X61160000Y-69950000D01*
X61160000Y-69950000D02*
X66460000Y-69950000D01*
X62810000Y-59670000D02*
X61160000Y-59670000D01*
X66460000Y-59670000D02*
X64810000Y-59670000D01*
X66460000Y-69950000D02*
X66460000Y-59670000D01*
X64810000Y-59670000D02*
G75*
G02*
X62810000Y-59670000I-1000000J0D01*
G01*
%TO.C,TP5*%
X78700000Y-69000000D02*
G75*
G02*
X75300000Y-69000000I-1700000J0D01*
G01*
X75300000Y-69000000D02*
G75*
G02*
X78700000Y-69000000I1700000J0D01*
G01*
%TO.C,J1*%
X25620000Y-23120000D02*
X27000000Y-23120000D01*
X25620000Y-24500000D02*
X25620000Y-23120000D01*
X25620000Y-25770000D02*
X25620000Y-74140000D01*
X25620000Y-25770000D02*
X28270000Y-25770000D01*
X25620000Y-74140000D02*
X30920000Y-74140000D01*
X28270000Y-23120000D02*
X30920000Y-23120000D01*
X28270000Y-25770000D02*
X28270000Y-23120000D01*
X30920000Y-23120000D02*
X30920000Y-74140000D01*
%TO.C,R6*%
X43040000Y-65000000D02*
X43810000Y-65000000D01*
X51120000Y-65000000D02*
X50350000Y-65000000D01*
X43810000Y-63630000D02*
X50350000Y-63630000D01*
X50350000Y-66370000D01*
X43810000Y-66370000D01*
X43810000Y-63630000D01*
%TO.C,R7*%
X43040000Y-69000000D02*
X43810000Y-69000000D01*
X51120000Y-69000000D02*
X50350000Y-69000000D01*
X43810000Y-67630000D02*
X50350000Y-67630000D01*
X50350000Y-70370000D01*
X43810000Y-70370000D01*
X43810000Y-67630000D01*
%TO.C,J2*%
X68620000Y-38580000D02*
X68620000Y-37200000D01*
X70000000Y-38580000D02*
X68620000Y-38580000D01*
X71270000Y-35820000D02*
X79000000Y-35820000D01*
X71270000Y-38580000D02*
X71270000Y-35820000D01*
X71270000Y-38580000D02*
X79000000Y-38580000D01*
X79000000Y-38580000D02*
X79000000Y-35820000D01*
%TO.C,TP1*%
X63700000Y-24000000D02*
G75*
G02*
X60300000Y-24000000I-1700000J0D01*
G01*
X60300000Y-24000000D02*
G75*
G02*
X63700000Y-24000000I1700000J0D01*
G01*
%TD*%
M02*
