%TF.GenerationSoftware,KiCad,Pcbnew,9.0.6*%
%TF.CreationDate,2026-10-02T13:30:41-05:00*%
%TF.ProjectId,pi5-cooling-hat,7069352d-636f-46f6-9c69-6e672d686174,rev?*%
%TF.SameCoordinates,Original*%
%TF.FileFunction,Copper,L1,Top*%
%TF.FilePolarity,Positive*%
%FSLAX46Y46*%
G04 Gerber Fmt 4.6, Leading zero omitted, Abs format (unit mm)*
G04 Created by KiCad (PCBNEW 9.0.6) date 2026-10-02 13:30:41*
%MOMM*%
%LPD*%
G01*
G04 APERTURE LIST*
G04 Aperture macros list*
%AMRoundRect*
0 Rectangle with rounded corners*
0 $1 Rounding radius*
0 $2 $3 $4 $5 $6 $7 $8 $9 X,Y pos of 4 corners*
0 Add a 4 corners polygon primitive as box body*
4,1,4,$2,$3,$4,$5,$6,$7,$8,$9,$2,$3,0*
0 Add four circle primitives for the rounded corners*
1,1,$1+$1,$2,$3*
1,1,$1+$1,$4,$5*
1,1,$1+$1,$6,$7*
1,1,$1+$1,$8,$9*
0 Add four rect primitives between the rounded corners*
20,1,$1+$1,$2,$3,$4,$5,0*
20,1,$1+$1,$4,$5,$6,$7,0*
20,1,$1+$1,$6,$7,$8,$9,0*
20,1,$1+$1,$8,$9,$2,$3,0*%
G04 Aperture macros list end*
%TA.AperFunction,ComponentPad*%
%ADD10C,3.000000*%
%TD*%
%TA.AperFunction,ComponentPad*%
%ADD11C,1.600000*%
%TD*%
%TA.AperFunction,ComponentPad*%
%ADD12R,1.050000X1.500000*%
%TD*%
%TA.AperFunction,ComponentPad*%
%ADD13O,1.050000X1.500000*%
%TD*%
%TA.AperFunction,ComponentPad*%
%ADD14RoundRect,0.250001X-0.949999X-0.949999X0.949999X-0.949999X0.949999X0.949999X-0.949999X0.949999X0*%
%TD*%
%TA.AperFunction,ComponentPad*%
%ADD15C,2.400000*%
%TD*%
%TA.AperFunction,SMDPad,CuDef*%
%ADD16RoundRect,0.250001X-0.462499X-0.624999X0.462499X-0.624999X0.462499X0.624999X-0.462499X0.624999X0*%
%TD*%
%TA.AperFunction,ComponentPad*%
%ADD17RoundRect,0.250000X-0.550000X-0.550000X0.550000X-0.550000X0.550000X0.550000X-0.550000X0.550000X0*%
%TD*%
%TA.AperFunction,ComponentPad*%
%ADD18R,1.700000X1.700000*%
%TD*%
%TA.AperFunction,ComponentPad*%
%ADD19C,1.700000*%
%TD*%
%TA.AperFunction,Conductor*%
%ADD20C,0.800000*%
%TD*%
%TA.AperFunction,Conductor*%
%ADD21C,0.350000*%
%TD*%
G04 APERTURE END LIST*
D10*
%TO.P,TP2,1*%
%TO.N,GND*%
X77000000Y-30000000D03*
%TD*%
D11*
%TO.P,R2,1*%
%TO.N,PWM_GATE*%
X49270000Y-40000000D03*
%TO.P,R2,2*%
%TO.N,GND*%
X49270000Y-29840000D03*
%TD*%
%TO.P,R4,1*%
%TO.N,GPIO17_TACH*%
X33000000Y-42000000D03*
%TO.P,R4,2*%
%TO.N,FAN_TACH*%
X43160000Y-42000000D03*
%TD*%
D10*
%TO.P,TP3,1*%
%TO.N,FAN_PWM_OD*%
X78000000Y-45000000D03*
%TD*%
D12*
%TO.P,Q1,1*%
%TO.N,GND*%
X48000000Y-37200000D03*
D13*
%TO.P,Q1,2*%
%TO.N,PWM_GATE*%
X49270000Y-37200000D03*
%TO.P,Q1,3*%
%TO.N,FAN_PWM_OD*%
X50540000Y-37200000D03*
%TD*%
D11*
%TO.P,C3,1*%
%TO.N,3V3*%
X72000000Y-61000000D03*
%TO.P,C3,2*%
%TO.N,GND*%
X77000000Y-61000000D03*
%TD*%
%TO.P,C2,1*%
%TO.N,5V_FUSED*%
X70000000Y-27000000D03*
%TO.P,C2,2*%
%TO.N,GND*%
X75000000Y-27000000D03*
%TD*%
%TO.P,R3,1*%
%TO.N,3V3*%
X42000000Y-30000000D03*
%TO.P,R3,2*%
%TO.N,FAN_TACH*%
X52160000Y-30000000D03*
%TD*%
D14*
%TO.P,D1,1*%
%TO.N,GND*%
X50000000Y-27000000D03*
D15*
%TO.P,D1,2*%
%TO.N,5V_FUSED*%
X60160000Y-27000000D03*
%TD*%
D10*
%TO.P,TP4,1*%
%TO.N,FAN_TACH*%
X82000000Y-47000000D03*
%TD*%
D11*
%TO.P,R1,1*%
%TO.N,GPIO18_PWM*%
X33000000Y-37200000D03*
%TO.P,R1,2*%
%TO.N,PWM_GATE*%
X43160000Y-37200000D03*
%TD*%
D16*
%TO.P,F1,1*%
%TO.N,5V_IN*%
X33512500Y-24500000D03*
%TO.P,F1,2*%
%TO.N,5V_FUSED*%
X36487500Y-24500000D03*
%TD*%
D11*
%TO.P,R5,1*%
%TO.N,3V3*%
X42000000Y-61000000D03*
%TO.P,R5,2*%
%TO.N,ID_SD*%
X52160000Y-61000000D03*
%TD*%
D17*
%TO.P,C1,1*%
%TO.N,5V_FUSED*%
X63000000Y-27000000D03*
D11*
%TO.P,C1,2*%
%TO.N,GND*%
X65500000Y-27000000D03*
%TD*%
D17*
%TO.P,U1,1*%
%TO.N,GND*%
X60000000Y-61000000D03*
D11*
%TO.P,U1,2*%
X60000000Y-63540000D03*
%TO.P,U1,3*%
X60000000Y-66080000D03*
%TO.P,U1,4*%
X60000000Y-68620000D03*
%TO.P,U1,5*%
%TO.N,ID_SD*%
X67620000Y-68620000D03*
%TO.P,U1,6*%
%TO.N,ID_SC*%
X67620000Y-66080000D03*
%TO.P,U1,7*%
%TO.N,EEPROM_WP*%
X67620000Y-63540000D03*
%TO.P,U1,8*%
%TO.N,3V3*%
X67620000Y-61000000D03*
%TD*%
D10*
%TO.P,TP5,1*%
%TO.N,EEPROM_WP*%
X77000000Y-69000000D03*
%TD*%
D18*
%TO.P,J1,1*%
%TO.N,3V3*%
X27000000Y-24500000D03*
D19*
%TO.P,J1,2*%
%TO.N,5V_IN*%
X29540000Y-24500000D03*
%TO.P,J1,3*%
%TO.N,N/C*%
X27000000Y-27040000D03*
%TO.P,J1,4*%
%TO.N,5V_IN*%
X29540000Y-27040000D03*
%TO.P,J1,5*%
%TO.N,N/C*%
X27000000Y-29580000D03*
%TO.P,J1,6*%
%TO.N,GND*%
X29540000Y-29580000D03*
%TO.P,J1,7*%
%TO.N,N/C*%
X27000000Y-32120000D03*
%TO.P,J1,8*%
X29540000Y-32120000D03*
%TO.P,J1,9*%
X27000000Y-34660000D03*
%TO.P,J1,10*%
X29540000Y-34660000D03*
%TO.P,J1,11*%
%TO.N,GPIO17_TACH*%
X27000000Y-37200000D03*
%TO.P,J1,12*%
%TO.N,GPIO18_PWM*%
X29540000Y-37200000D03*
%TO.P,J1,13*%
%TO.N,N/C*%
X27000000Y-39740000D03*
%TO.P,J1,14*%
X29540000Y-39740000D03*
%TO.P,J1,15*%
X27000000Y-42280000D03*
%TO.P,J1,16*%
X29540000Y-42280000D03*
%TO.P,J1,17*%
%TO.N,3V3*%
X27000000Y-44820000D03*
%TO.P,J1,18*%
%TO.N,N/C*%
X29540000Y-44820000D03*
%TO.P,J1,19*%
X27000000Y-47360000D03*
%TO.P,J1,20*%
X29540000Y-47360000D03*
%TO.P,J1,21*%
X27000000Y-49900000D03*
%TO.P,J1,22*%
X29540000Y-49900000D03*
%TO.P,J1,23*%
X27000000Y-52440000D03*
%TO.P,J1,24*%
X29540000Y-52440000D03*
%TO.P,J1,25*%
X27000000Y-54980000D03*
%TO.P,J1,26*%
X29540000Y-54980000D03*
%TO.P,J1,27*%
%TO.N,ID_SD*%
X27000000Y-57520000D03*
%TO.P,J1,28*%
%TO.N,ID_SC*%
X29540000Y-57520000D03*
%TO.P,J1,29*%
%TO.N,N/C*%
X27000000Y-60060000D03*
%TO.P,J1,30*%
X29540000Y-60060000D03*
%TO.P,J1,31*%
X27000000Y-62600000D03*
%TO.P,J1,32*%
X29540000Y-62600000D03*
%TO.P,J1,33*%
X27000000Y-65140000D03*
%TO.P,J1,34*%
X29540000Y-65140000D03*
%TO.P,J1,35*%
X27000000Y-67680000D03*
%TO.P,J1,36*%
X29540000Y-67680000D03*
%TO.P,J1,37*%
X27000000Y-70220000D03*
%TO.P,J1,38*%
X29540000Y-70220000D03*
%TO.P,J1,39*%
X27000000Y-72760000D03*
%TO.P,J1,40*%
X29540000Y-72760000D03*
%TD*%
D11*
%TO.P,R6,1*%
%TO.N,3V3*%
X42000000Y-65000000D03*
%TO.P,R6,2*%
%TO.N,ID_SC*%
X52160000Y-65000000D03*
%TD*%
%TO.P,R7,1*%
%TO.N,3V3*%
X42000000Y-69000000D03*
%TO.P,R7,2*%
%TO.N,EEPROM_WP*%
X52160000Y-69000000D03*
%TD*%
D18*
%TO.P,J2,1*%
%TO.N,GND*%
X70000000Y-37200000D03*
D19*
%TO.P,J2,2*%
%TO.N,5V_FUSED*%
X72540000Y-37200000D03*
%TO.P,J2,3*%
%TO.N,FAN_TACH*%
X75080000Y-37200000D03*
%TO.P,J2,4*%
%TO.N,FAN_PWM_OD*%
X77620000Y-37200000D03*
%TD*%
D10*
%TO.P,TP1,1*%
%TO.N,5V_FUSED*%
X62000000Y-24000000D03*
%TD*%
D20*
%TO.N,5V_IN*%
X33650000Y-22000000D02*
X33512500Y-24500000D01*
X29540000Y-24500000D02*
X29540000Y-27040000D01*
X29540000Y-27040000D02*
X31000000Y-27040000D01*
X31000000Y-22000000D02*
X33650000Y-22000000D01*
X31000000Y-27040000D02*
X31000000Y-22000000D01*
%TO.N,5V_FUSED*%
X68000000Y-33000000D02*
X72540000Y-33000000D01*
X68000000Y-27000000D02*
X68000000Y-33000000D01*
X70000000Y-23000000D02*
X70000000Y-27000000D01*
X60160000Y-23500000D02*
X60160000Y-27000000D01*
X70000000Y-27000000D02*
X68000000Y-27000000D01*
X63000000Y-23000000D02*
X70000000Y-23000000D01*
X72540000Y-33000000D02*
X72540000Y-37200000D01*
X63000000Y-27000000D02*
X63000000Y-23000000D01*
X60160000Y-27000000D02*
X60160000Y-24000000D01*
X60160000Y-27000000D02*
X63000000Y-27000000D01*
X38000000Y-24500000D02*
X38000000Y-23500000D01*
X36487500Y-24500000D02*
X38000000Y-24500000D01*
X38000000Y-23500000D02*
X60160000Y-23500000D01*
X60160000Y-24000000D02*
X62000000Y-24000000D01*
D21*
%TO.N,GPIO18_PWM*%
X29540000Y-37200000D02*
X31000000Y-37200000D01*
X31000000Y-37200000D02*
X33000000Y-37200000D01*
%TO.N,FAN_TACH*%
X75080000Y-37200000D02*
X75080000Y-42000000D01*
X75080000Y-42000000D02*
X43160000Y-42000000D01*
X52160000Y-33000000D02*
X52160000Y-30000000D01*
X43160000Y-42000000D02*
X46000000Y-42000000D01*
X46000000Y-33000000D02*
X52160000Y-33000000D01*
X75080000Y-47000000D02*
X82000000Y-47000000D01*
X75080000Y-37200000D02*
X75080000Y-47000000D01*
X46000000Y-42000000D02*
X46000000Y-33000000D01*
%TO.N,GPIO17_TACH*%
X23000000Y-37200000D02*
X23000000Y-43550000D01*
X33000000Y-43550000D02*
X33000000Y-42000000D01*
X23000000Y-43550000D02*
X33000000Y-43550000D01*
X27000000Y-37200000D02*
X23000000Y-37200000D01*
%TO.N,ID_SD*%
X20800000Y-75000000D02*
X74000000Y-75000000D01*
X54000000Y-75500000D02*
X74000000Y-75500000D01*
X74000000Y-75000000D02*
X74000000Y-68620000D01*
X74000000Y-75500000D02*
X74000000Y-68620000D01*
X20800000Y-57520000D02*
X20800000Y-75000000D01*
X52160000Y-61000000D02*
X54000000Y-61000000D01*
X74000000Y-68620000D02*
X67620000Y-68620000D01*
X54000000Y-61000000D02*
X54000000Y-75500000D01*
X27000000Y-57520000D02*
X20800000Y-57520000D01*
%TD*%
M02*
