%TF.GenerationSoftware,KiCad,Pcbnew,9.0.6*%
%TF.CreationDate,2026-10-02T12:58:53-05:00*%
%TF.ProjectId,pi5-cooling-hat,7069352d-636f-46f6-9c69-6e672d686174,rev?*%
%TF.SameCoordinates,Original*%
%TF.FileFunction,Soldermask,Top*%
%TF.FilePolarity,Negative*%
%FSLAX46Y46*%
G04 Gerber Fmt 4.6, Leading zero omitted, Abs format (unit mm)*
G04 Created by KiCad (PCBNEW 9.0.6) date 2026-10-02 12:58:53*
%MOMM*%
%LPD*%
G01*
G04 APERTURE LIST*
G04 Aperture macros list*
%AMRoundRect*
0 Rectangle with rounded corners*
0 $1 Rounding radius*
0 $2 $3 $4 $5 $6 $7 $8 $9 X,Y pos of 4 corners*
0 Add a 4 corners polygon primitive as box body*
4,1,4,$2,$3,$4,$5,$6,$7,$8,$9,$2,$3,0*
0 Add four circle primitives for the rounded corners*
1,1,$1+$1,$2,$3*
1,1,$1+$1,$4,$5*
1,1,$1+$1,$6,$7*
1,1,$1+$1,$8,$9*
0 Add four rect primitives between the rounded corners*
20,1,$1+$1,$2,$3,$4,$5,0*
20,1,$1+$1,$4,$5,$6,$7,0*
20,1,$1+$1,$6,$7,$8,$9,0*
20,1,$1+$1,$8,$9,$2,$3,0*%
G04 Aperture macros list end*
%ADD10C,1.600000*%
%ADD11R,1.050000X1.500000*%
%ADD12O,1.050000X1.500000*%
%ADD13R,1.700000X1.700000*%
%ADD14C,1.700000*%
%ADD15C,3.000000*%
%ADD16RoundRect,0.250001X-0.462499X-0.624999X0.462499X-0.624999X0.462499X0.624999X-0.462499X0.624999X0*%
%ADD17C,2.700000*%
%ADD18RoundRect,0.250000X-0.550000X-0.550000X0.550000X-0.550000X0.550000X0.550000X-0.550000X0.550000X0*%
%ADD19RoundRect,0.250001X-0.949999X-0.949999X0.949999X-0.949999X0.949999X0.949999X-0.949999X0.949999X0*%
%ADD20C,2.400000*%
G04 APERTURE END LIST*
D10*
%TO.C,R1*%
X33000000Y-37200000D03*
X43160000Y-37200000D03*
%TD*%
D11*
%TO.C,Q1*%
X48000000Y-37200000D03*
D12*
X49270000Y-37200000D03*
X50540000Y-37200000D03*
%TD*%
D13*
%TO.C,J1*%
X27000000Y-24500000D03*
D14*
X29540000Y-24500000D03*
X27000000Y-27040000D03*
X29540000Y-27040000D03*
X27000000Y-29580000D03*
X29540000Y-29580000D03*
X27000000Y-32120000D03*
X29540000Y-32120000D03*
X27000000Y-34660000D03*
X29540000Y-34660000D03*
X27000000Y-37200000D03*
X29540000Y-37200000D03*
X27000000Y-39740000D03*
X29540000Y-39740000D03*
X27000000Y-42280000D03*
X29540000Y-42280000D03*
X27000000Y-44820000D03*
X29540000Y-44820000D03*
X27000000Y-47360000D03*
X29540000Y-47360000D03*
X27000000Y-49900000D03*
X29540000Y-49900000D03*
X27000000Y-52440000D03*
X29540000Y-52440000D03*
X27000000Y-54980000D03*
X29540000Y-54980000D03*
X27000000Y-57520000D03*
X29540000Y-57520000D03*
X27000000Y-60060000D03*
X29540000Y-60060000D03*
X27000000Y-62600000D03*
X29540000Y-62600000D03*
X27000000Y-65140000D03*
X29540000Y-65140000D03*
X27000000Y-67680000D03*
X29540000Y-67680000D03*
X27000000Y-70220000D03*
X29540000Y-70220000D03*
X27000000Y-72760000D03*
X29540000Y-72760000D03*
%TD*%
D15*
%TO.C,TP4*%
X82000000Y-47000000D03*
%TD*%
D16*
%TO.C,F1*%
X33512500Y-24500000D03*
X36487500Y-24500000D03*
%TD*%
D15*
%TO.C,TP2*%
X77000000Y-30000000D03*
%TD*%
D17*
%TO.C,H2*%
X81500000Y-23500000D03*
%TD*%
D15*
%TO.C,TP3*%
X78000000Y-45000000D03*
%TD*%
D10*
%TO.C,R2*%
X49270000Y-40000000D03*
X49270000Y-29840000D03*
%TD*%
D13*
%TO.C,J2*%
X70000000Y-37200000D03*
D14*
X72540000Y-37200000D03*
X75080000Y-37200000D03*
X77620000Y-37200000D03*
%TD*%
D17*
%TO.C,H4*%
X81500000Y-73000000D03*
%TD*%
D18*
%TO.C,C1*%
X63000000Y-27000000D03*
D10*
X65500000Y-27000000D03*
%TD*%
D15*
%TO.C,TP1*%
X62000000Y-24000000D03*
%TD*%
D10*
%TO.C,R3*%
X42000000Y-30000000D03*
X52160000Y-30000000D03*
%TD*%
%TO.C,R4*%
X33000000Y-42000000D03*
X43160000Y-42000000D03*
%TD*%
D17*
%TO.C,H3*%
X23500000Y-73000000D03*
%TD*%
%TO.C,H1*%
X23500000Y-23500000D03*
%TD*%
D19*
%TO.C,D1*%
X50000000Y-27000000D03*
D20*
X60160000Y-27000000D03*
%TD*%
D10*
%TO.C,C2*%
X70000000Y-27000000D03*
X75000000Y-27000000D03*
%TD*%
M02*
