M48
; DRILL file {KiCad 9.0.6} date 2026-10-02T12:58:53-0500
; FORMAT={-:-/ absolute / metric / decimal}
; #@! TF.CreationDate,2026-10-02T12:58:53-05:00
; #@! TF.GenerationSoftware,Kicad,Pcbnew,9.0.6
; #@! TF.FileFunction,MixedPlating,1,2
FMAT,2
METRIC
; #@! TA.AperFunction,Plated,PTH,ComponentDrill
T1C0.750
; #@! TA.AperFunction,Plated,PTH,ComponentDrill
T2C0.800
; #@! TA.AperFunction,Plated,PTH,ComponentDrill
T3C1.000
; #@! TA.AperFunction,Plated,PTH,ComponentDrill
T4C1.200
; #@! TA.AperFunction,Plated,PTH,ComponentDrill
T5C2.000
; #@! TA.AperFunction,NonPlated,NPTH,ComponentDrill
T6C2.700
%
G90
G05
T1
X48.0Y-37.2
X49.27Y-37.2
X50.54Y-37.2
T2
X33.0Y-37.2
X33.0Y-42.0
X42.0Y-30.0
X43.16Y-37.2
X43.16Y-42.0
X49.27Y-29.84
X49.27Y-40.0
X52.16Y-30.0
X63.0Y-27.0
X65.5Y-27.0
X70.0Y-27.0
X75.0Y-27.0
T3
X27.0Y-24.5
X27.0Y-27.04
X27.0Y-29.58
X27.0Y-32.12
X27.0Y-34.66
X27.0Y-37.2
X27.0Y-39.74
X27.0Y-42.28
X27.0Y-44.82
X27.0Y-47.36
X27.0Y-49.9
X27.0Y-52.44
X27.0Y-54.98
X27.0Y-57.52
X27.0Y-60.06
X27.0Y-62.6
X27.0Y-65.14
X27.0Y-67.68
X27.0Y-70.22
X27.0Y-72.76
X29.54Y-24.5
X29.54Y-27.04
X29.54Y-29.58
X29.54Y-32.12
X29.54Y-34.66
X29.54Y-37.2
X29.54Y-39.74
X29.54Y-42.28
X29.54Y-44.82
X29.54Y-47.36
X29.54Y-49.9
X29.54Y-52.44
X29.54Y-54.98
X29.54Y-57.52
X29.54Y-60.06
X29.54Y-62.6
X29.54Y-65.14
X29.54Y-67.68
X29.54Y-70.22
X29.54Y-72.76
X70.0Y-37.2
X72.54Y-37.2
X75.08Y-37.2
X77.62Y-37.2
T4
X50.0Y-27.0
X60.16Y-27.0
T5
X62.0Y-24.0
X77.0Y-30.0
X78.0Y-45.0
X82.0Y-47.0
T6
X23.5Y-23.5
X23.5Y-73.0
X81.5Y-23.5
X81.5Y-73.0
M30
