%TF.GenerationSoftware,KiCad,Pcbnew,9.0.6*%
%TF.CreationDate,2026-10-02T13:30:41-05:00*%
%TF.ProjectId,pi5-cooling-hat,7069352d-636f-46f6-9c69-6e672d686174,rev?*%
%TF.SameCoordinates,Original*%
%TF.FileFunction,Copper,L3,Inr*%
%TF.FilePolarity,Positive*%
%FSLAX46Y46*%
G04 Gerber Fmt 4.6, Leading zero omitted, Abs format (unit mm)*
G04 Created by KiCad (PCBNEW 9.0.6) date 2026-10-02 13:30:41*
%MOMM*%
%LPD*%
G01*
G04 APERTURE LIST*
G04 Aperture macros list*
%AMRoundRect*
0 Rectangle with rounded corners*
0 $1 Rounding radius*
0 $2 $3 $4 $5 $6 $7 $8 $9 X,Y pos of 4 corners*
0 Add a 4 corners polygon primitive as box body*
4,1,4,$2,$3,$4,$5,$6,$7,$8,$9,$2,$3,0*
0 Add four circle primitives for the rounded corners*
1,1,$1+$1,$2,$3*
1,1,$1+$1,$4,$5*
1,1,$1+$1,$6,$7*
1,1,$1+$1,$8,$9*
0 Add four rect primitives between the rounded corners*
20,1,$1+$1,$2,$3,$4,$5,0*
20,1,$1+$1,$4,$5,$6,$7,0*
20,1,$1+$1,$6,$7,$8,$9,0*
20,1,$1+$1,$8,$9,$2,$3,0*%
G04 Aperture macros list end*
%TA.AperFunction,ComponentPad*%
%ADD10C,3.000000*%
%TD*%
%TA.AperFunction,ComponentPad*%
%ADD11C,1.600000*%
%TD*%
%TA.AperFunction,ComponentPad*%
%ADD12R,1.050000X1.500000*%
%TD*%
%TA.AperFunction,ComponentPad*%
%ADD13O,1.050000X1.500000*%
%TD*%
%TA.AperFunction,ComponentPad*%
%ADD14RoundRect,0.250001X-0.949999X-0.949999X0.949999X-0.949999X0.949999X0.949999X-0.949999X0.949999X0*%
%TD*%
%TA.AperFunction,ComponentPad*%
%ADD15C,2.400000*%
%TD*%
%TA.AperFunction,ComponentPad*%
%ADD16RoundRect,0.250000X-0.550000X-0.550000X0.550000X-0.550000X0.550000X0.550000X-0.550000X0.550000X0*%
%TD*%
%TA.AperFunction,ComponentPad*%
%ADD17R,1.700000X1.700000*%
%TD*%
%TA.AperFunction,ComponentPad*%
%ADD18C,1.700000*%
%TD*%
%TA.AperFunction,Conductor*%
%ADD19C,0.350000*%
%TD*%
G04 APERTURE END LIST*
D10*
%TO.N,GND*%
%TO.C,TP2*%
X77000000Y-30000000D03*
%TD*%
D11*
%TO.N,PWM_GATE*%
%TO.C,R2*%
X49270000Y-40000000D03*
%TO.N,GND*%
X49270000Y-29840000D03*
%TD*%
%TO.N,GPIO17_TACH*%
%TO.C,R4*%
X33000000Y-42000000D03*
%TO.N,FAN_TACH*%
X43160000Y-42000000D03*
%TD*%
D10*
%TO.N,FAN_PWM_OD*%
%TO.C,TP3*%
X78000000Y-45000000D03*
%TD*%
D12*
%TO.N,GND*%
%TO.C,Q1*%
X48000000Y-37200000D03*
D13*
%TO.N,PWM_GATE*%
X49270000Y-37200000D03*
%TO.N,FAN_PWM_OD*%
X50540000Y-37200000D03*
%TD*%
D11*
%TO.N,3V3*%
%TO.C,C3*%
X72000000Y-61000000D03*
%TO.N,GND*%
X77000000Y-61000000D03*
%TD*%
%TO.N,5V_FUSED*%
%TO.C,C2*%
X70000000Y-27000000D03*
%TO.N,GND*%
X75000000Y-27000000D03*
%TD*%
%TO.N,3V3*%
%TO.C,R3*%
X42000000Y-30000000D03*
%TO.N,FAN_TACH*%
X52160000Y-30000000D03*
%TD*%
D14*
%TO.N,GND*%
%TO.C,D1*%
X50000000Y-27000000D03*
D15*
%TO.N,5V_FUSED*%
X60160000Y-27000000D03*
%TD*%
D10*
%TO.N,FAN_TACH*%
%TO.C,TP4*%
X82000000Y-47000000D03*
%TD*%
D11*
%TO.N,GPIO18_PWM*%
%TO.C,R1*%
X33000000Y-37200000D03*
%TO.N,PWM_GATE*%
X43160000Y-37200000D03*
%TD*%
%TO.N,3V3*%
%TO.C,R5*%
X42000000Y-61000000D03*
%TO.N,ID_SD*%
X52160000Y-61000000D03*
%TD*%
D16*
%TO.N,5V_FUSED*%
%TO.C,C1*%
X63000000Y-27000000D03*
D11*
%TO.N,GND*%
X65500000Y-27000000D03*
%TD*%
D16*
%TO.N,GND*%
%TO.C,U1*%
X60000000Y-61000000D03*
D11*
X60000000Y-63540000D03*
X60000000Y-66080000D03*
X60000000Y-68620000D03*
%TO.N,ID_SD*%
X67620000Y-68620000D03*
%TO.N,ID_SC*%
X67620000Y-66080000D03*
%TO.N,EEPROM_WP*%
X67620000Y-63540000D03*
%TO.N,3V3*%
X67620000Y-61000000D03*
%TD*%
D10*
%TO.N,EEPROM_WP*%
%TO.C,TP5*%
X77000000Y-69000000D03*
%TD*%
D17*
%TO.N,3V3*%
%TO.C,J1*%
X27000000Y-24500000D03*
D18*
%TO.N,5V_IN*%
X29540000Y-24500000D03*
%TO.N,N/C*%
X27000000Y-27040000D03*
%TO.N,5V_IN*%
X29540000Y-27040000D03*
%TO.N,N/C*%
X27000000Y-29580000D03*
%TO.N,GND*%
X29540000Y-29580000D03*
%TO.N,N/C*%
X27000000Y-32120000D03*
X29540000Y-32120000D03*
X27000000Y-34660000D03*
X29540000Y-34660000D03*
%TO.N,GPIO17_TACH*%
X27000000Y-37200000D03*
%TO.N,GPIO18_PWM*%
X29540000Y-37200000D03*
%TO.N,N/C*%
X27000000Y-39740000D03*
X29540000Y-39740000D03*
X27000000Y-42280000D03*
X29540000Y-42280000D03*
%TO.N,3V3*%
X27000000Y-44820000D03*
%TO.N,N/C*%
X29540000Y-44820000D03*
X27000000Y-47360000D03*
X29540000Y-47360000D03*
X27000000Y-49900000D03*
X29540000Y-49900000D03*
X27000000Y-52440000D03*
X29540000Y-52440000D03*
X27000000Y-54980000D03*
X29540000Y-54980000D03*
%TO.N,ID_SD*%
X27000000Y-57520000D03*
%TO.N,ID_SC*%
X29540000Y-57520000D03*
%TO.N,N/C*%
X27000000Y-60060000D03*
X29540000Y-60060000D03*
X27000000Y-62600000D03*
X29540000Y-62600000D03*
X27000000Y-65140000D03*
X29540000Y-65140000D03*
X27000000Y-67680000D03*
X29540000Y-67680000D03*
X27000000Y-70220000D03*
X29540000Y-70220000D03*
X27000000Y-72760000D03*
X29540000Y-72760000D03*
%TD*%
D11*
%TO.N,3V3*%
%TO.C,R6*%
X42000000Y-65000000D03*
%TO.N,ID_SC*%
X52160000Y-65000000D03*
%TD*%
%TO.N,3V3*%
%TO.C,R7*%
X42000000Y-69000000D03*
%TO.N,EEPROM_WP*%
X52160000Y-69000000D03*
%TD*%
D17*
%TO.N,GND*%
%TO.C,J2*%
X70000000Y-37200000D03*
D18*
%TO.N,5V_FUSED*%
X72540000Y-37200000D03*
%TO.N,FAN_TACH*%
X75080000Y-37200000D03*
%TO.N,FAN_PWM_OD*%
X77620000Y-37200000D03*
%TD*%
D10*
%TO.N,5V_FUSED*%
%TO.C,TP1*%
X62000000Y-24000000D03*
%TD*%
D19*
%TO.N,EEPROM_WP*%
X72000000Y-74000000D02*
X72000000Y-63540000D01*
X77000000Y-74000000D02*
X77000000Y-69000000D01*
X54000000Y-69000000D02*
X54000000Y-74000000D01*
X52160000Y-69000000D02*
X54000000Y-69000000D01*
X54000000Y-74000000D02*
X72000000Y-74000000D01*
X72000000Y-74000000D02*
X77000000Y-74000000D01*
X72000000Y-63540000D02*
X67620000Y-63540000D01*
%TD*%
M02*
